<?xml version="1.0" encoding="UTF-8" standalone="no"?>
<!-- Created with Inkscape (http://www.inkscape.org/) -->

<svg
   xmlns:dc="http://purl.org/dc/elements/1.1/"
   xmlns:cc="http://creativecommons.org/ns#"
   xmlns:rdf="http://www.w3.org/1999/02/22-rdf-syntax-ns#"
   xmlns:svg="http://www.w3.org/2000/svg"
   xmlns="http://www.w3.org/2000/svg"
   xmlns:sodipodi="http://sodipodi.sourceforge.net/DTD/sodipodi-0.dtd"
   xmlns:inkscape="http://www.inkscape.org/namespaces/inkscape"
   width="141.41"
   height="140.16"
   id="svg13881"
   version="1.1"
   inkscape:version="0.48.1 "
   sodipodi:docname="Neues Dokument 3">
  <defs
     id="defs13883" />
  <sodipodi:namedview
     id="base"
     pagecolor="#ffffff"
     bordercolor="#666666"
     borderopacity="1.0"
     inkscape:pageopacity="0.0"
     inkscape:pageshadow="2"
     inkscape:zoom="3.1681723"
     inkscape:cx="69.934924"
     inkscape:cy="69.370933"
     inkscape:document-units="px"
     inkscape:current-layer="layer1"
     showgrid="false"
     fit-margin-top="0"
     fit-margin-left="0"
     fit-margin-right="0"
     fit-margin-bottom="0"
     inkscape:window-width="1024"
     inkscape:window-height="678"
     inkscape:window-x="-4"
     inkscape:window-y="-4"
     inkscape:window-maximized="1" />
  <metadata
     id="metadata13886">
    <rdf:RDF>
      <cc:Work
         rdf:about="">
        <dc:format>image/svg+xml</dc:format>
        <dc:type
           rdf:resource="http://purl.org/dc/dcmitype/StillImage" />
        <dc:title></dc:title>
      </cc:Work>
    </rdf:RDF>
  </metadata>
  <g
     inkscape:label="Ebene 1"
     inkscape:groupmode="layer"
     id="layer1"
     transform="translate(-230.2925,-366.99771)">
    <g
       id="g1658"
       transform="matrix(1.25,0,0,-1.25,231.55192,368.32017)">
      <path
         d="m 0,0 111.032,0 c -4.178,-36.132 -4.178,-73.21 0,-110.095 L 0,-110.095 C 3.983,-75.094 5.063,-39.203 0,0"
         style="fill:#ffffff;fill-opacity:1;fill-rule:nonzero;stroke:none"
         id="path1660"
         inkscape:connector-curvature="0" />
    </g>
    <g
       id="g1662"
       transform="matrix(1.25,0,0,-1.25,231.55192,368.32017)">
      <path
         d="m 0,0 111.032,0 c -4.178,-36.132 -4.178,-73.21 0,-110.095 L 0,-110.095 C 3.983,-75.094 5.063,-39.203 0,0 z"
         style="fill:none;stroke:#ffffff;stroke-width:0.461;stroke-linecap:butt;stroke-linejoin:miter;stroke-miterlimit:3.86400008;stroke-opacity:1;stroke-dasharray:none"
         id="path1664"
         inkscape:connector-curvature="0" />
    </g>
    <g
       id="g1666"
       transform="matrix(1.25,0,0,-1.25,236.36692,372.40647)">
      <path
         d="m 0,0 102.853,0 c -3.87,-33.748 -3.87,-68.382 0,-102.832 L 0,-102.832 C 3.69,-70.14 4.692,-36.618 0,0"
         style="fill:#0066b3;fill-opacity:1;fill-rule:nonzero;stroke:none"
         id="path1668"
         inkscape:connector-curvature="0" />
    </g>
    <g
       id="g1670"
       transform="matrix(1.25,0,0,-1.25,256.68192,431.40897)">
      <path
         d="m 0,0 -0.415,0 0,4.686 1.007,0 C 2.103,4.686 3.318,3.817 3.318,2.423 3.288,0.553 1.895,-0.026 0,-0.026 L 0,0 z m 1.186,-8.002 -1.571,0 0,5.106 1.423,0 c 1.688,0 2.991,-0.947 2.991,-2.473 C 4.029,-7 3.051,-8.002 1.186,-8.002 M -6.208,7.554 c 0,0 1.408,-0.72 1.408,-1.473 l 0,-15.473 c 0,0 -0.276,-1.099 -1.125,-1.479 l 8.828,0 c 3.585,0 5.777,2.501 5.777,5.555 0,2.237 -1.215,3.316 -3.171,4.527 1.719,1.131 2.342,1.947 2.342,3.895 0,2.895 -2.933,4.448 -5.926,4.448"
         style="fill:#ffffff;fill-opacity:1;fill-rule:nonzero;stroke:none"
         id="path1672"
         inkscape:connector-curvature="0" />
    </g>
    <g
       id="g1674"
       transform="matrix(1.25,0,0,-1.25,248.92317,421.96517)">
      <path
         d="m 0,0 c 0,0 1.409,-0.721 1.409,-1.473 l 0,-15.474 c 0,0 -0.278,-1.098 -1.126,-1.478 l 8.828,0 c 3.584,0 5.777,2.501 5.777,5.553 0,2.238 -1.215,3.318 -3.171,4.529 1.718,1.131 2.341,1.947 2.341,3.894 C 14.058,-1.553 11.126,0 8.133,0 L 0,0 z"
         style="fill:none;stroke:#ffffff;stroke-width:0.017;stroke-linecap:butt;stroke-linejoin:miter;stroke-miterlimit:3.86400008;stroke-opacity:1;stroke-dasharray:none"
         id="path1676"
         inkscape:connector-curvature="0" />
      <g
         id="g1678"
         transform="translate(7.393,-15.557)">
        <path
           d="m 0,0 -1.57,0 0,5.106 1.422,0 C 1.541,5.106 2.843,4.159 2.843,2.633 2.843,1.002 1.865,0 0,0 z"
           style="fill:none;stroke:#ffffff;stroke-width:0.017;stroke-linecap:butt;stroke-linejoin:miter;stroke-miterlimit:3.86400008;stroke-opacity:1;stroke-dasharray:none"
           id="path1680"
           inkscape:connector-curvature="0" />
        <g
           id="g1682"
           transform="translate(-1.186,8.002)">
          <path
             d="m 0,0 -0.415,0 0,4.686 1.007,0 C 2.103,4.686 3.318,3.817 3.318,2.423 3.288,0.553 1.895,-0.026 0,-0.026 L 0,0 z"
             style="fill:none;stroke:#ffffff;stroke-width:0.017;stroke-linecap:butt;stroke-linejoin:miter;stroke-miterlimit:3.86400008;stroke-opacity:1;stroke-dasharray:none"
             id="path1684"
             inkscape:connector-curvature="0" />
        </g>
      </g>
    </g>
    <g
       id="g1686"
       transform="matrix(1.25,0,0,-1.25,303.09067,442.03147)">
      <path
         d="m 0,0 -0.909,0 0,12.18 C 0.357,12.052 1.365,12.206 2.565,11.638 4.806,10.607 5.097,8.024 5.097,6.168 5.097,3.354 4.482,0 0,0 m -6.845,15.173 c 0,0 1.194,-0.773 1.194,-1.419 l 0,-15.323 c 0,-0.492 -1.388,-1.269 -1.388,-1.269 l 8.533,0 c 5.652,0 8.507,4.722 8.507,8.669 0,5.162 -2.076,8.93 -9.189,9.342 C 0.097,15.2 -0.65,15.2 -1.398,15.2 l -1.655,0 c -0.877,0 -1.754,-0.027 -2.63,-0.027"
         style="fill:#ffffff;fill-opacity:1;fill-rule:nonzero;stroke:none"
         id="path1688"
         inkscape:connector-curvature="0" />
    </g>
    <g
       id="g1690"
       transform="matrix(1.25,0,0,-1.25,294.53442,423.06517)">
      <path
         d="m 0,0 c 0,0 1.194,-0.774 1.194,-1.419 l 0,-15.325 c 0,-0.491 -1.388,-1.267 -1.388,-1.267 l 8.533,0 c 5.651,0 8.507,4.722 8.507,8.669 0,5.162 -2.076,8.929 -9.189,9.342 -0.715,0.026 -1.462,0.026 -2.21,0.026 l -1.655,0 C 2.915,0.026 2.038,0 1.162,0 L 0,0 z"
         style="fill:none;stroke:#ffffff;stroke-width:0.012;stroke-linecap:butt;stroke-linejoin:miter;stroke-miterlimit:3.86400008;stroke-opacity:1;stroke-dasharray:none"
         id="path1692"
         inkscape:connector-curvature="0" />
      <g
         id="g1694"
         transform="translate(6.845,-15.173)">
        <path
           d="m 0,0 -0.909,0 0,12.18 C 0.357,12.052 1.365,12.206 2.565,11.638 4.806,10.607 5.097,8.024 5.097,6.168 5.097,3.354 4.482,0 0,0 z"
           style="fill:none;stroke:#ffffff;stroke-width:0.012;stroke-linecap:butt;stroke-linejoin:miter;stroke-miterlimit:3.86400008;stroke-opacity:1;stroke-dasharray:none"
           id="path1696"
           inkscape:connector-curvature="0" />
      </g>
    </g>
    <g
       id="g1698"
       transform="matrix(1.25,0,0,-1.25,278.51442,423.03267)">
      <path
         d="m 0,0 -6.748,0 c 0,0 0.96,-0.561 0.96,-1.106 l 0,-2.355 c 0,-1.945 0.031,-3.89 0.031,-5.834 0.033,-2.502 -0.384,-5.358 1.86,-7.377 1.446,-1.289 3.562,-1.87 5.711,-1.87 7.444,0 7.957,3.889 7.957,8.69 0.029,2.875 0.007,5.75 0.002,8.625 0,0.907 0.922,0.817 0.922,1.227 L 3.793,0 c 0,0 0.941,-0.441 0.941,-1.137 l 0,-11.67 c 0,-1.314 -0.899,-2.552 -2.728,-2.552 -2.02,0 -2.823,1.263 -2.823,2.678 l 0,11.638 C -0.817,-0.381 0,0 0,0"
         style="fill:#ffffff;fill-opacity:1;fill-rule:nonzero;stroke:none"
         id="path1700"
         inkscape:connector-curvature="0" />
    </g>
    <g
       id="g1702"
       transform="matrix(1.25,0,0,-1.25,278.51442,423.03267)">
      <path
         d="m 0,0 -6.748,0 c 0,0 0.96,-0.561 0.96,-1.106 l 0,-2.355 c 0,-1.945 0.031,-3.89 0.031,-5.834 0.033,-2.502 -0.384,-5.358 1.86,-7.377 1.446,-1.289 3.562,-1.87 5.711,-1.87 7.444,0 7.957,3.889 7.957,8.69 0.029,2.875 0.007,5.75 0.002,8.625 0,0.907 0.922,0.817 0.922,1.227 L 3.793,0 c 0,0 0.941,-0.441 0.941,-1.137 l 0,-11.67 c 0,-1.314 -0.899,-2.552 -2.728,-2.552 -2.02,0 -2.823,1.263 -2.823,2.678 l 0,11.638 C -0.817,-0.381 0,0 0,0 z"
         style="fill:none;stroke:#ffffff;stroke-width:0.011;stroke-linecap:butt;stroke-linejoin:miter;stroke-miterlimit:3.86400008;stroke-opacity:1;stroke-dasharray:none"
         id="path1704"
         inkscape:connector-curvature="0" />
    </g>
    <g
       id="g1706"
       transform="matrix(1.25,0,0,-1.25,343.36817,423.03267)">
      <path
         d="m 0,0 c 0,0 1.014,-0.494 1.014,-0.99 l 0,-15.987 c 0,0 -0.073,-0.737 -0.81,-1.08 l 6.924,0 c 0,0 -0.935,0.65 -0.935,1.081 l 0,15.925 C 6.193,-0.401 7.209,0 7.209,0"
         style="fill:#ffffff;fill-opacity:1;fill-rule:nonzero;stroke:none"
         id="path1708"
         inkscape:connector-curvature="0" />
    </g>
    <g
       id="g1710"
       transform="matrix(1.25,0,0,-1.25,343.36817,423.03267)">
      <path
         d="m 0,0 c 0,0 1.014,-0.494 1.014,-0.99 l 0,-15.987 c 0,0 -0.073,-0.737 -0.81,-1.08 l 6.924,0 c 0,0 -0.935,0.65 -0.935,1.081 l 0,15.925 C 6.193,-0.401 7.209,0 7.209,0 L 0,0 z"
         style="fill:none;stroke:#ffffff;stroke-width:0.015;stroke-linecap:butt;stroke-linejoin:miter;stroke-miterlimit:3.86400008;stroke-opacity:1;stroke-dasharray:none"
         id="path1712"
         inkscape:connector-curvature="0" />
    </g>
    <g
       id="g1714"
       transform="matrix(1.25,0,0,-1.25,319.33692,422.05397)">
      <path
         d="m 0,0 11.116,-9.881 0,6.284 c 0,1.288 -1.41,2.817 -1.41,2.817 l 7.36,0 c -1.527,-1.156 -1.388,-2.532 -1.388,-2.532 l 0.002,-17.044 -10.89,9.948 0.01,-6.08 c 0,-1.338 1.172,-2.285 1.172,-2.285 l -7.041,0 c 1.343,0.894 1.068,2.527 1.068,2.527"
         style="fill:#ffffff;fill-opacity:1;fill-rule:nonzero;stroke:none"
         id="path1716"
         inkscape:connector-curvature="0" />
    </g>
    <g
       id="g1718"
       transform="matrix(1.25,0,0,-1.25,319.33692,422.05397)">
      <path
         d="m 0,0 11.116,-9.881 0,6.284 c 0,1.288 -1.41,2.817 -1.41,2.817 l 7.36,0 c -1.527,-1.156 -1.388,-2.532 -1.388,-2.532 l 0.002,-17.044 -10.89,9.948 0.01,-6.08 c 0,-1.338 1.172,-2.285 1.172,-2.285 l -7.041,0 c 1.343,0.894 1.068,2.527 1.068,2.527 L 0,0 z"
         style="fill:none;stroke:#ffffff;stroke-width:0.014;stroke-linecap:butt;stroke-linejoin:miter;stroke-miterlimit:3.86400008;stroke-opacity:1;stroke-dasharray:none"
         id="path1720"
         inkscape:connector-curvature="0" />
    </g>
  </g>
</svg>
