<?xml version="1.0" encoding="utf-8"?>
<!-- Generator: Adobe Illustrator 12.0.1, SVG Export Plug-In . SVG Version: 6.00 Build 51448)  -->
<!DOCTYPE svg PUBLIC "-//W3C//DTD SVG 1.1//EN" "http://www.w3.org/Graphics/SVG/1.1/DTD/svg11.dtd" [
	<!ENTITY ns_svg "http://www.w3.org/2000/svg">
	<!ENTITY ns_xlink "http://www.w3.org/1999/xlink">
]>
<svg  version="1.1" id="Ebene_1" xmlns="&ns_svg;" xmlns:xlink="&ns_xlink;" width="708.912" height="429.336"
	 viewBox="0 0 708.912 429.336" overflow="visible" enable-background="new 0 0 708.912 429.336" xml:space="preserve">
<g>
	<g>
		<path fill-rule="evenodd" clip-rule="evenodd" fill="#10892F" d="M0,215.496C0,97.488,158.688,1.728,354.384,1.728
			c195.839,0,354.528,95.76,354.528,213.768c0,118.08-158.688,213.84-354.528,213.84C158.688,429.336,0,333.576,0,215.496L0,215.496
			L0,215.496L0,215.496z"/>
		<polygon fill-rule="evenodd" clip-rule="evenodd" fill="#FFFFFF" points="173.376,97.704 173.376,101.304 173.376,101.304 
			173.376,101.304 173.376,101.304 173.376,104.832 173.376,97.704 170.424,97.704 169.848,100.656 		"/>
		<polygon fill-rule="evenodd" clip-rule="evenodd" fill="#FFFFFF" points="154.728,216.793 154.728,216.793 154.728,216.793 
			154.728,216.793 154.728,216.793 		"/>
		<polygon fill-rule="evenodd" clip-rule="evenodd" fill="#FFFFFF" points="154.728,216.793 154.728,216.793 154.728,216.793 
			154.728,216.793 154.728,216.793 		"/>
		<path fill-rule="evenodd" clip-rule="evenodd" fill="#FFFFFF" d="M694.008,221.545h13.681c0.072-1.729,0.144-3.385,0.144-5.113
			c0-1.655-0.071-3.383-0.144-5.04h-13.681V221.545L694.008,221.545z M694.008,182.592l1.8-1.872l1.801-13.392
			c-1.08-3.672-2.305-7.344-3.601-11.016V182.592L694.008,182.592z M694.008,184.392v-1.8l1.8-1.872l-0.144,0.792l0.144-0.072
			l-0.504,2.952H694.008z M691.416,221.545h2.592v-10.153h-2.592V221.545L691.416,221.545z M691.416,204.336l1.44-7.992l0.287-1.656
			l-1.151-1.224l0.864,2.88l-0.864-2.88l-0.576-0.576V204.336L691.416,204.336z M691.416,184.392h0.792l1.8-1.8v1.8h-1.8l1.8-1.8
			v-26.28c-0.504-1.44-1.079-2.808-1.655-4.32l-0.937,6.84v17.64l0.792-0.792v1.656h-0.792V184.392z M683.64,249.553l4.824-28.008
			h2.952v-10.153h-1.151l1.151-7.056v-11.448l-6.479-7.344l-1.08-1.152h7.56v-7.056h-0.72l0.72-0.864v-17.64l-2.448,18.504h-5.328
			v7.632l1.297,0.576l-1.297-0.576v9.864l1.801,2.016l-1.801,10.44V249.553z M671.616,300.024l2.808-2.304l1.224-2.16l7.992-46.008
			v-42.265l-0.72,4.104h-11.304v10.153h9.576l-9.576,55.223V300.024L671.616,300.024z M683.64,177.336H675l-3.384,2.808v-0.936
			l0.359-1.872H675l-3.384,2.808v8.784l2.16,2.52h6.768l3.096,3.384v-9.864l-1.295-0.576l1.295,0.576V177.336L683.64,177.336z
			 M671.616,124.416h2.232c-0.721-0.864-1.44-1.728-2.232-2.592V124.416L671.616,124.416z M671.616,191.448v-2.52l2.16,2.52H671.616
			z M652.896,318.168h2.881l0.432-3.023l-3.313,2.808v-17.28l1.801-1.512h6.84l7.271-6.048l2.809-16.345v23.257l-6.48,5.399
			l-2.375,0.864h-5.041l-1.512,8.856l-3.313,2.808V318.168L652.896,318.168z M671.616,180.144l-0.145,0.144l-1.296,6.984l1.44,1.656
			v2.52h-2.088l0.647-4.176l1.44,1.656V180.144L671.616,180.144z M671.616,211.392h-18.721v10.153h18.721V211.392L671.616,211.392z
			 M652.896,124.488l18.721-0.072v-2.592c-1.296-1.512-2.592-2.952-3.96-4.464h-14.761V124.488L652.896,124.488z M671.616,179.208
			v0.936l-0.145,0.144L671.616,179.208L671.616,179.208z M652.896,300.672l1.801-1.512h-1.801V300.672z M594.647,318.168h58.033
			h0.215v-0.216l-0.215,0.216l0.215-0.216v-17.28l-1.799,1.512l-1.44,8.856h-55.009V318.168L594.647,318.168z M652.896,211.392
			h-58.248v10.153h58.248V211.392L652.896,211.392z M594.647,139.248l1.729-1.44l1.08-5.76l8.784-7.56h46.655v-7.128h-47.951
			l-2.377,0.936l-7.92,6.768V139.248L594.647,139.248z M652.896,299.16v1.512l-1.799,1.512l0.504-3.023H652.896L652.896,299.16z
			 M594.647,140.688v-1.44l1.729-1.44l-0.504,2.88H594.647z M591.552,318.168h3.096v-7.128h-3.096V318.168L591.552,318.168z
			 M594.647,211.392h-3.096v10.153h3.096V211.392L594.647,211.392z M591.552,140.688h1.297l1.799-1.44v1.44h-1.799l1.799-1.44
			v-14.184l-2.879,2.448l-0.217,0.36V140.688L591.552,140.688z M591.552,100.512l1.44-8.64l-1.44-1.656v-2.448h2.16l-0.72,4.104
			l-1.44-1.656V100.512z M579.744,318.168h11.808v-7.128h-11.808V318.168L579.744,318.168z M591.552,211.392h-11.808v10.153h11.808
			V211.392L591.552,211.392z M579.744,94.896h5.472l-5.472,33.048v10.296l2.088,2.448h9.72v-12.816l-0.936,1.656l-0.721,4.104
			h-3.815l5.472-33.12V90.216l-2.088-2.448h-9.72V94.896L579.744,94.896z M591.552,87.768v2.448l-2.088-2.448H591.552
			L591.552,87.768z M579.744,140.688v-2.448l2.088,2.448H579.744z M542.88,40.176l2.52-2.736c-0.863-0.288-1.655-0.648-2.52-0.936
			V40.176L542.88,40.176z M542.88,396.936c1.08-0.432,2.16-0.863,3.24-1.295l-0.792-1.008l-2.448-2.593V396.936L542.88,396.936z
			 M542.88,318.168h36.864v-7.128H542.88V318.168L542.88,318.168z M579.744,211.392h-19.728l-0.145-5.112l-0.792-10.44
			l-1.296-10.296l-1.801-10.152l-2.303-9.936l-2.736-9.792l-3.24-9.432l-3.672-9.36l-1.152-2.52v30.6l0.864,2.952l2.16,9.432
			l1.728,9.648l1.225,9.792l0.791,9.936l0.072,4.68h-6.84v10.153h6.912l-0.145,5.399l-0.791,9.937l-1.225,9.791l-1.728,9.576
			l-2.16,9.504l-0.864,2.952v30.673l1.152-2.521l3.672-9.36l3.24-9.504l2.736-9.792l2.303-9.937l1.801-10.151l1.296-10.296
			l0.792-10.439l0.145-5.832h19.728V211.392L579.744,211.392z M542.88,111.528l1.801-1.44l3.239-15.192h31.824v-7.128H545.04
			l-2.16,1.728v-1.728h2.16l-2.16,1.728V111.528L542.88,111.528z M579.744,127.944v10.296l-1.44-1.656l-0.72,4.104h2.16v-2.448
			l-1.44-1.656L579.744,127.944L579.744,127.944z M542.88,112.896v-1.368l1.801-1.44l-0.648,2.808H542.88z M538.2,105.84h-10.584
			l2.376-13.968l0.647-4.104h-4.248l3.601,4.104l-3.601-4.104h-5.256v7.128h1.08l-0.432,2.304l-0.648-0.864v18.288l0.504,0.792
			l4.681,8.208l4.319,8.424l3.889,8.64l3.527,8.928l3.096,9l1.729,6.336v-30.6l-2.951-6.624l-4.537-8.856l-3.455-5.976h9.215
			l1.729-1.368v1.368h-1.729l1.729-1.368V89.496l-1.367,1.08L538.2,105.84L538.2,105.84z M521.136,60.696l1.801-1.368l7.992-7.056
			l7.631-7.416l4.32-4.68v-3.672c-2.592-1.008-5.184-1.944-7.848-2.952l-3.889,4.248l-7.271,7.056l-2.736,2.448V60.696
			L521.136,60.696z M521.136,384.624l2.232,2.017l7.271,7.127l5.256,5.761c2.377-0.864,4.681-1.728,6.984-2.593v-4.896l-4.752-5.256
			l-7.561-7.487l-7.991-7.129l-1.44-1.08V384.624L521.136,384.624z M521.136,337.393l3.961-5.545l5.327-8.352l3.024-5.328h9.432
			v-7.128h-5.544l2.593-5.04l2.951-6.623v-30.673l-1.729,6.336l-3.096,9.072l-3.527,8.928l-3.889,8.64l-4.319,8.425l-0.505,0.936
			h-4.68v7.128h0.576l-0.072,0.145l-0.504,0.792V337.393L521.136,337.393z M542.88,87.768v1.728l-1.367,1.08l0.575-2.808H542.88
			L542.88,87.768z M542.88,211.392v10.153h-21.744v-10.153H542.88z M521.136,87.768h-6.479l-1.368-1.728l-6.408-7.416l-4.248-4.392
			l3.024-1.944l8.856-6.264l6.623-5.328V47.304l-4.896,4.248l-7.992,6.408l-8.424,5.976l-4.608,2.952l-2.304-2.232l-2.735-2.376
			v19.512l3.672-2.088l5.328,5.616l2.159,2.448h-11.159v7.128h17.063l3.888,4.896l5.4,7.704l2.808,4.32l-0.144,1.08h0.863
			l1.08,1.728V96.336l-1.008-1.44h1.008V87.768L521.136,87.768z M490.177,371.448l2.735-2.376l3.672-3.456l2.952,1.872l8.352,6.048
			l7.92,6.408l5.328,4.68v-13.536l-6.984-5.615l-8.711-6.336l-1.512-0.937l2.951-3.096l6.408-7.416l6.12-7.776l1.728-2.52v-18.288
			l-4.607,7.128l-5.4,7.703l-5.76,7.345l-6.191,7.128l-3.961,4.176l-5.039-2.951V371.448L490.177,371.448z M521.136,211.392v10.153
			h-30.959v-10.153H521.136L521.136,211.392z M521.136,311.04v7.128h-30.959v-7.128H521.136z M490.177,62.28l-4.681-4.104
			l-2.808-2.232v13.248L486,72l0.288,0.36l-3.6,2.088v11.448l4.392-2.232l3.097-1.872V62.28L490.177,62.28z M482.688,377.713
			l2.808-2.16l4.681-4.104v-21.815l-3.24-1.873l-4.248-2.231v11.592l5.039,2.88L486,361.656l-3.312,2.88V377.713L482.688,377.713z
			 M490.177,87.768v7.128h-7.488v-7.128H490.177L490.177,87.768z M490.177,211.392v10.153h-7.488v-10.153H490.177L490.177,211.392z
			 M490.177,311.04v7.128h-7.488v-7.128H490.177z M482.688,55.944l-4.969-3.888l-8.063-5.688l-8.353-5.4L452.736,36l-8.856-4.536
			l-9.072-4.104l-9.359-3.672l-9.504-3.24l-3.961-1.152v10.512l0.865,0.216l9.071,3.096l8.856,3.528l8.64,3.888l8.353,4.32
			l8.207,4.68l7.92,5.112l7.633,5.472l7.344,5.76l3.816,3.312V55.944L482.688,55.944z M411.983,414.432l3.961-1.151l9.504-3.24
			l9.359-3.672l9.072-4.104l8.856-4.607l8.567-4.896l8.353-5.399l8.063-5.688l4.969-3.959v-13.177l-3.816,3.312l-7.344,5.761
			l-7.633,5.472l-7.92,5.112l-8.207,4.68l-8.353,4.32l-8.64,3.888l-8.856,3.528l-9.071,3.096l-0.865,0.216V414.432L411.983,414.432z
			 M482.688,74.448v11.448l-3.672,1.872h3.672v7.128h-7.92l-2.377,11.016l-7.056-1.296l1.872-11.304l-0.072,0.072l-10.367,4.248
			l-10.656,3.816l-10.944,3.384l-11.16,2.952l-11.376,2.448l-0.648,0.144v-10.368l9.576-2.088l10.729-2.88L442.8,91.8l10.225-3.672
			l10.008-4.032l2.951-1.368l-1.871-2.088h-52.129v-7.128h53.713l2.736,1.224l-2.736-1.224h1.656l1.08,1.224l4.319,4.824
			l9.288-4.824L482.688,74.448L482.688,74.448z M482.688,211.392v10.153h-70.705v-10.153H482.688L482.688,211.392z M482.688,311.04
			v7.128h-70.705v-7.128H482.688L482.688,311.04z M482.688,345.528v11.592l-0.864-0.504l-9.288-4.896l-9.648-4.465l-9.936-4.104
			L442.8,339.48l-10.512-3.313l-10.729-2.808l-9.576-2.16v-10.368l0.721,0.072l11.376,2.52l11.16,3.024l10.872,3.384l10.656,3.816
			l10.295,4.32l10.08,4.68L482.688,345.528z M411.983,19.296l-5.832-1.656l-9.936-2.304l-10.08-1.8L375.84,12.24l-8.64-0.648v10.08
			l7.632,0.576l9.72,1.224l9.576,1.728l9.432,2.232l8.424,2.376V19.296L411.983,19.296z M367.2,422.137l8.64-0.648l10.296-1.296
			l10.08-1.8l9.936-2.305l5.832-1.656V403.92l-8.424,2.377l-9.432,2.231l-9.576,1.728l-9.72,1.225l-7.632,0.576V422.137
			L367.2,422.137z M411.983,73.512v7.128h-43.56l-0.575,3.312h0.071l-0.72,4.104V88.2v-0.144l0,0l0,0V73.512H411.983L411.983,73.512
			z M411.983,100.008v10.368l-10.943,1.944l-11.736,1.656l-11.951,1.152l-10.152,0.576v-10.152l9.288-0.576l11.592-1.08
			l11.376-1.584l11.16-2.016L411.983,100.008L411.983,100.008z M411.983,211.392v10.153H367.2v-10.153H411.983L411.983,211.392z
			 M411.983,311.04v7.128h-15.84l4.969,0.648l10.871,2.016V331.2l-1.367-0.288l-11.16-2.016l-11.376-1.584l-11.521-1.08
			l-9.359-0.576V311.04H411.983z M367.2,11.592l-1.801-0.144l-1.728-0.072v10.08l1.224,0.072l2.305,0.144V11.592L367.2,11.592z
			 M363.672,422.352l1.728-0.071l1.801-0.144v-10.08l-2.305,0.144l-1.224,0.072V422.352L363.672,422.352z M367.2,73.512v14.544l0,0
			l0,0V88.2l-2.016,11.232l-1.513-0.288v-24.12l1.728-1.512H367.2L367.2,73.512z M367.2,105.552v10.152l-2.016,0.144h-1.513v-10.152
			h1.152L367.2,105.552L367.2,105.552z M367.2,211.392v10.153h-3.528v-10.153H367.2L367.2,211.392z M367.2,311.04v14.616
			l-2.376-0.145h-1.152V311.04H367.2L367.2,311.04z M363.672,75.024l1.728-1.512h-1.728V75.024z M363.672,11.376l-5.616-0.144V0
			c-1.728,0-3.456,0-5.184,0s-3.312,0-5.04,0v11.376l-3.456,0.072l-10.44,0.792l-10.296,1.296l-10.08,1.8l-9.936,2.304l-9.792,2.808
			l-8.64,2.952v10.8l2.664-1.08l9.072-3.096l9.288-2.592l9.432-2.232l9.576-1.728l9.72-1.224l9.936-0.72l2.952-0.072v62.496h-62.64
			v7.056h62.64v14.832l-6.624-0.144l-11.664-0.648l-11.448-1.152l-11.304-1.512l-11.016-2.016l-10.584-2.376v10.368l8.568,1.944
			l11.448,2.016l11.664,1.656l11.88,1.152l12.024,0.72l7.056,0.144v95.4h-62.64v10.153h62.64v89.495h-62.64v7.128h24.696
			l-4.752,0.648l-11.52,2.088l-8.424,1.872v10.368l10.44-2.377l11.088-1.943l11.304-1.584l11.448-1.08l11.664-0.72l6.696-0.144
			v86.976l-2.952-0.072l-9.936-0.72l-9.72-1.225l-9.576-1.728l-9.432-2.231l-9.288-2.593l-9.072-3.096l-2.664-1.08v10.8l8.64,2.952
			l9.792,2.808l9.936,2.305l10.08,1.8l10.296,1.296l10.44,0.792l3.456,0.071v6.984c1.728,0,3.312,0,5.04,0s3.456,0,5.184-0.072
			v-6.768l5.616-0.145v-10.079l-5.616,0.144v-87.048l5.616,0.144V311.04h-5.616v-89.495h5.616v-10.153h-5.616v-95.4l5.616-0.144
			v-10.152l-5.616,0.072v-14.76h1.297l-1.152,6.624l-0.072,0.576l0,0l0,0l5.544,0.936v-24.12l-1.8,1.44l-1.296,7.488h-2.521v-62.64
			l5.616,0.144V11.376L363.672,11.376z M363.672,73.512v1.512l-1.8,1.44l0.504-2.952H363.672z M285.192,23.4l-0.864,0.288
			l-9.36,3.672l-9.072,4.104L257.04,36l-8.568,4.968l-4.32,2.736v12.168l1.728-1.224l7.92-5.112l8.208-4.68l8.352-4.32l8.64-3.888
			l6.192-2.448V23.4L285.192,23.4z M244.152,390.024l4.32,2.735l8.568,4.896l8.856,4.607l9.072,4.104l9.36,3.672l0.864,0.288v-10.8
			L279,397.08l-8.64-3.888l-8.352-4.32l-8.208-4.68l-7.92-5.112l-1.728-1.224V390.024L244.152,390.024z M285.192,83.952v7.056
			h-23.616l2.448,0.864l10.368,3.24l10.584,2.88h0.216v10.368l-2.736-0.576l-11.016-2.952l-10.728-3.384L250.2,97.704l-0.792-0.36
			l-3.456,20.952l-1.8,1.44V84.168v0.072l6.552,2.664l2.448-2.16l2.376-0.792H285.192L285.192,83.952z M285.192,211.392v10.153
			h-41.04v-10.153H285.192L285.192,211.392z M285.192,311.04v7.128h-41.04v-7.128H285.192L285.192,311.04z M285.192,322.776v10.368
			l-0.432,0.072l-10.656,2.808l-10.368,3.312l-10.152,3.6l-9.432,3.889v-10.943l5.688-2.305l10.584-3.816l10.8-3.383l11.088-2.953
			L285.192,322.776L285.192,322.776z M244.152,121.248h1.296l0.504-2.952l-1.8,1.44V121.248z M244.152,43.704l-4.032,2.664
			l-7.488,5.256v12.888l5.616-4.392l5.904-4.248V43.704L244.152,43.704z M232.632,382.104l7.488,5.257l4.032,2.664v-12.168
			l-5.904-4.248l-5.616-4.392V382.104L232.632,382.104z M244.152,84.168v35.568l-1.728,1.512h-9.792v-7.056h6.696l3.24-19.368
			l0.144-0.288l-2.736-1.08L232.632,90V78.696l2.088,1.08L244.152,84.168L244.152,84.168z M244.152,119.736l-1.728,1.512h1.728
			V119.736L244.152,119.736z M244.152,211.392v10.153h-11.52v-10.153H244.152L244.152,211.392z M244.152,311.04v7.128h-11.52v-7.128
			H244.152L244.152,311.04z M244.152,335.881v10.943l-0.432,0.216l-9.576,4.464l-1.512,0.793v-11.305l6.912-3.168L244.152,335.881z
			 M232.632,51.624l-0.576,0.432l-7.776,6.12l-2.808,2.448v23.688l8.568,4.464L232.632,90V78.696l-7.128-3.744l-2.952-1.728
			L223.776,72l7.128-6.12l1.728-1.368V51.624L232.632,51.624z M221.472,373.104l2.808,2.449l7.776,6.119l0.576,0.432v-12.887
			l-1.728-1.369l-7.128-6.191l-2.304-2.16V373.104L221.472,373.104z M232.632,114.192v7.056h-11.16v-7.056H232.632L232.632,114.192z
			 M232.632,211.392v10.153h-11.16v-10.153H232.632L232.632,211.392z M232.632,311.04v7.128h-11.16v-7.128H232.632L232.632,311.04z
			 M232.632,340.992v11.305l-7.704,4.031l-3.456,2.016V346.68l8.136-4.248L232.632,340.992L232.632,340.992z M221.472,102.313
			v-0.576l0.072,0.144l-0.072-0.144v-4.032h0.792l-0.72,4.176L221.472,102.313z M221.472,60.624l-4.608,4.032l-3.24,3.096
			l-0.432-0.288v15.12l1.872-2.016l5.4,3.168l1.008,0.576V60.624L221.472,60.624z M213.192,365.545l3.672,3.527l4.608,4.031v-13.607
			l-0.72-0.72l0.72-0.433V346.68l-1.584,0.793l-6.552,3.888l-0.144-0.216V365.545L213.192,365.545z M221.472,97.704v4.032
			l-3.456-4.032H221.472L221.472,97.704z M221.472,101.736l-3.456-4.032h-4.824v7.128h0.576l-0.576,3.672V118.8l2.088,2.448h6.192
			v-7.056h-1.944l1.944-11.88V101.736L221.472,101.736z M221.472,211.392v10.153h-8.28v-10.153H221.472L221.472,211.392z
			 M221.472,311.04v7.128h-8.28v-7.128H221.472L221.472,311.04z M213.192,121.248V118.8l2.088,2.448H213.192z M213.192,67.464
			l-5.04-3.312l-8.208-5.976l-7.848-6.336l-7.416-6.696l-6.336-6.264v14.256l7.056,6.336l8.208,6.696l8.568,6.264l4.104,2.664
			l-3.384,3.528l-6.408,7.416l-6.12,7.776l-2.736,3.888h-9.288v7.128h4.464l-3.456,5.4l-1.008,1.8v21.816l0.792-1.8l4.32-8.424
			l4.68-8.208l5.04-7.92l1.872-2.664h18.144v-7.128h-12.888l4.104-5.256l6.192-7.128l2.592-2.736V67.464L213.192,67.464z
			 M178.344,321.696l1.008,1.8l5.328,8.352l5.688,8.064l6.12,7.776l6.408,7.416l1.656,1.728l-3.096,2.016l-8.64,6.265l-8.352,6.696
			l-6.12,5.472v14.112l5.328-5.185l7.488-6.696l7.92-6.408l8.28-5.975l4.464-2.881l1.368,1.297v-14.4l-2.592-2.736l-6.192-7.128
			l-5.76-7.345l-5.472-7.703l-5.04-7.92l-0.072-0.145h25.128v-7.128H183.96l-0.504-0.936l-4.32-8.425l-0.792-1.799V321.696
			L178.344,321.696z M213.192,108.504V118.8l-1.44-1.656L213.192,108.504L213.192,108.504z M213.192,118.8v2.448h-2.16l0.72-4.104
			L213.192,118.8L213.192,118.8z M213.192,211.392v10.153h-34.848v-10.153H213.192z M178.344,38.88l-0.792-0.72l-4.392-4.896
			c-0.504,0.216-1.008,0.36-1.512,0.576v12.744l5.904,5.904l0.792,0.648V38.88L178.344,38.88z M178.344,97.704h-4.968l-1.728,1.512
			v-1.512h1.728l-1.728,1.512v50.688l0.072-0.288l3.528-8.928l3.096-6.84v-21.816l-3.96,6.84l-0.576,1.152l0.216-1.08l0.144-1.224
			l0.216-1.224l0.216-1.224l0.216-1.224l0.216-1.224l0.216-1.224l0.144-1.224l0.216-1.224l0.216-1.224l0.216-1.224l0.216-1.152
			l0.144-0.72h1.944V97.704L178.344,97.704z M171.648,309.385l0.792,1.655h-0.792v7.128h4.68l2.016,3.528v-21.815l-3.096-6.841
			l-3.528-8.928l-0.072-0.288V309.385L171.648,309.385z M178.344,377.28l-1.8,1.584l-4.896,4.896v14.832l4.824-5.399l1.872-1.8
			V377.28L178.344,377.28z M178.344,211.392v10.153h-6.696v-10.153H178.344z M171.648,33.84c-2.952,1.008-5.904,2.088-8.712,3.24
			l0.144,0.144l6.984,7.848l1.584,1.512V33.84L171.648,33.84z M171.648,99.216l-1.8,1.44l-0.216,1.224l-0.216,1.224l-0.216,1.224
			l-0.216,1.224l-0.216,1.224L168.552,108l-0.216,1.224l-0.216,1.224l-0.216,1.224l-0.216,1.224l-0.216,1.224l-0.144,1.224
			l-0.216,1.224l-0.216,1.296l-0.216,1.224l-0.216,1.224l-0.216,1.224l-0.216,1.224l-0.216,1.152l-0.216,1.224l-0.216,1.224
			l-0.216,1.224l-0.216,1.224l-0.216,1.152l-0.216,1.224l-0.288,1.152l-0.216,1.224l-0.288,1.152l-0.288,1.152l-0.144,0.792h-1.728
			v7.056h1.512l-1.008,2.52l-0.504,1.584v43.848l0.576-4.68l1.728-9.648l2.16-9.432l2.592-9.288l3.024-8.712V99.216L171.648,99.216z
			 M161.568,285.912l0.504,1.584l3.672,9.36l4.104,9.144l1.8,3.385v-25.561l-3.024-8.784l-2.592-9.288l-2.16-9.504l-1.728-9.576
			l-0.576-4.68V285.912L161.568,285.912z M171.648,311.04h-10.08v7.128h10.08V311.04L171.648,311.04z M171.648,383.76l-2.592,2.521
			l-7.128,7.776l-0.36,0.504v0.791c3.168,1.225,6.408,2.449,9.648,3.601l0.432-0.36V383.76L171.648,383.76z M171.648,97.704v1.512
			l-1.8,1.44l0.576-2.952H171.648L171.648,97.704z M171.648,211.392v10.153h-10.08v-10.153H171.648z M161.568,136.656h-0.72v7.056
			h0.72V136.656L161.568,136.656z M160.848,134.424l0.288-1.8l-0.288-1.008v-1.224l0.576,0.576l-0.288,1.656l-0.288-1.008V134.424
			L160.848,134.424z M160.848,283.824l0.72,2.088v-43.92l-0.72-5.111v-0.504V283.824L160.848,283.824z M161.568,311.04h-0.72v7.128
			h0.72V311.04L161.568,311.04z M161.568,394.561l-0.504,0.576l0.504,0.215V394.561L161.568,394.561z M161.568,147.816v43.848
			l-0.72,5.112v0.504v-47.376L161.568,147.816L161.568,147.816z M161.568,211.392v10.153h-0.72v-10.153H161.568z M160.848,136.656
			h-0.36l0.36-2.232v-2.808l-0.576-1.872l-6.12-6.84v18.36l2.088,2.448h4.608V136.656L160.848,136.656z M154.152,259.848
			l1.944,8.353l2.736,9.792l2.016,5.832v-47.447l-0.72-9.433l-0.144-5.399h0.864v-10.153h-0.864l0.144-4.68l0.72-9.432v-47.376
			l-2.016,5.76l-2.736,9.792l-1.944,8.352V259.848L154.152,259.848z M160.848,311.04h-6.696v7.128h6.696V311.04L160.848,311.04z
			 M160.848,130.392v1.224l-0.576-1.872L160.848,130.392L160.848,130.392z M154.152,143.712v-2.448l2.088,2.448H154.152z
			 M154.152,122.904l-1.44-1.584l-1.08-1.152h-1.584l2.664,1.152l-2.664-1.152H94.464v7.056h54l5.328,5.976l-1.08,6.408l1.44,1.656
			v2.448h-2.088l0.648-4.104l1.44,1.656V122.904L154.152,122.904z M94.464,221.545h55.296l0.144,5.832l0.792,10.439l1.296,10.296
			l1.8,10.151l0.36,1.584v-86.04l-0.36,1.584l-1.8,10.152l-1.296,10.296l-0.792,10.44l-0.144,5.112H94.464V221.545L94.464,221.545z
			 M154.152,311.04H94.464v7.128h59.688V311.04z M94.464,120.168h-34.2l-2.304,0.864l-8.208,6.912v14.328l1.8-1.512l1.008-5.832
			l9.072-7.704h32.832V120.168L94.464,120.168z M49.752,221.545h44.712v-10.153H49.752V221.545L49.752,221.545z M94.464,311.04
			H49.752v7.128h44.712V311.04L94.464,311.04z M49.752,143.712v-1.44l1.8-1.512l-0.576,2.952H49.752z M49.752,127.944l-2.88,2.448
			l-1.224,2.088l-0.72,4.176H34.2h-3.096l-0.432,2.952l3.528-2.952l-3.528,2.952l-12.096,71.784H0.072
			c0,1.656-0.072,3.384-0.072,5.04l0,0l0,0l0,0c0,1.729,0.072,3.385,0.072,5.113H16.92L9.504,265.68
			c1.584,4.033,3.384,7.992,5.328,11.881l9.36-56.016h25.56v-10.153H25.92l11.304-67.68h10.728l1.8-1.44v1.44h-1.8l1.8-1.44V127.944
			L49.752,127.944z M49.752,311.04H35.064c2.016,2.376,4.032,4.753,6.12,7.128h8.568V311.04z"/>
	</g>
	<path fill-rule="evenodd" clip-rule="evenodd" d="M686.664,181.008h-16.992l-1.224,6.984h8.279l6.984,7.848l-16.92,98.496
		l-9.145,7.704h-7.991l-2.017,11.808H17.208l-6.552-6.191l27.792-167.04h13.536l1.224-7.128l10.944-9.288h88.416l7.416,8.352
		l-1.296,8.064h9.72l0,0c3.096-12.384,4.752-25.92,7.128-38.664l0,0h43.992l-2.736,16.344h26.712l3.672-22.176l9.288-7.848h87.624
		l6.192,6.912l-0.648,4.32h11.376l3.673-21.6h98.783l6.624,7.344l-3.456,20.592h10.872l2.376-13.752h43.416l-2.951,17.928h17.424
		l3.815-17.928h43.776l-7.488,45.504h10.872l1.296-6.912l10.584-9.216h87.912l6.624,7.488L686.664,181.008L686.664,181.008
		L686.664,181.008z"/>
	<g>
		<path fill-rule="evenodd" clip-rule="evenodd" fill="#EA6321" d="M646.2,182.521l1.8-11.232l0,0c-0.071,0.072-25.56,0-25.56,0l0,0
			l-4.176,26.568h55.871l3.889,4.536L662.256,300.6l-7.416,6.48h-85.248l-5.616-6.48l8.137-50.615h36.504l-1.944,12.456h25.92
			l4.536-28.152h-55.872l-4.032-4.68l14.977-93.6l8.496-7.56h84.527l4.465,5.04l-7.776,49.032H646.2L646.2,182.521L646.2,182.521z"
			/>
		<polygon fill-rule="evenodd" clip-rule="evenodd" fill="#EA6321" points="539.424,307.08 454.681,307.08 449.063,300.6 
			481.536,98.064 517.104,98.064 492.408,252.432 518.688,252.432 543.456,98.136 579.312,98.136 546.769,300.6 539.424,307.08 
			539.424,307.08 		"/>
		<polygon fill-rule="evenodd" clip-rule="evenodd" fill="#EA6321" points="211.752,258.408 203.976,307.08 144.504,307.08 
			176.832,108.288 212.976,108.288 188.928,258.408 211.752,258.408 211.752,258.408 		"/>
		<polygon fill-rule="evenodd" clip-rule="evenodd" fill="#EA6321" points="145.944,185.976 109.296,185.976 109.296,185.976 
			111.312,173.521 85.68,173.521 71.352,263.881 73.872,266.4 96.624,266.4 101.52,236.809 89.856,236.809 95.688,201.024 
			143.496,201.024 127.656,300.24 119.88,307.08 34.704,307.08 28.584,300.744 54.648,138.888 63.432,131.256 148.824,131.256 
			153.792,137.088 145.944,185.976 145.944,185.976 		"/>
		<path fill-rule="evenodd" clip-rule="evenodd" fill="#EA6321" d="M392.688,211.68h15.408l-6.121,37.728h-9.287v57.672h30.168
			l7.416-6.48l17.64-109.799l-6.192-7.056l8.424-7.488l0,0l0,0l14.112-87.984l-4.104-4.824h-67.463v70.056l4.176-25.776
			l24.624,0.144l-5.544,34.416h-23.256V211.68z M377.353,249.408l6.119-37.728h9.217v-49.392h-1.44l0,0l0,0l1.44-8.784V83.448
			H366.12L330.264,307.08h62.424v-57.672H377.353L377.353,249.408L377.353,249.408z"/>
		<path fill-rule="evenodd" clip-rule="evenodd" fill="#EA6321" d="M281.088,144.216h20.952l-17.496,108.648h-3.456v54.216h22.968
			l0,0l0,0l7.92-7.056l32.472-201.456l-3.816-4.536h-59.544V144.216z M260.064,252.864l17.568-108.648h3.456V94.032H255.96
			l-7.128,6.264l-12.312,77.04L215.64,300.6l5.76,6.48h59.688v-54.216H260.064L260.064,252.864L260.064,252.864z"/>
	</g>
</g>
</svg>
