<?xml version="1.0" encoding="utf-8"?>
<!-- Generator: Adobe Illustrator 16.0.4, SVG Export Plug-In . SVG Version: 6.00 Build 0)  -->
<!DOCTYPE svg PUBLIC "-//W3C//DTD SVG 1.1//EN" "http://www.w3.org/Graphics/SVG/1.1/DTD/svg11.dtd">
<svg version="1.1" xmlns="http://www.w3.org/2000/svg" xmlns:xlink="http://www.w3.org/1999/xlink" x="0px" y="0px"
	 width="566.929px" height="215.433px" viewBox="0 0 566.929 215.433" enable-background="new 0 0 566.929 215.433"
	 xml:space="preserve">
<g id="Hintergrund">
</g>
<g id="Hilfslinien_anzeigen">
</g>
<g id="schwarz">
</g>
<g id="weiss">
</g>
<g id="grün">
</g>
<g id="claim">
	<g>
		<g>
			<polygon fill="#E30613" points="0,0 566.929,0 566.929,215.433 0,215.433 0,0 			"/>
			<path fill="#E30613" d="M283.464,107.716"/>
		</g>
		<path d="M256.317,111.016c0.653-2.093,1.595-4.546,2.96-6.597c1.209-1.815,3.826-4.889,8.149-4.889h19.031
			c0.474,0,1.05-0.044,1.65-0.059c0.834-0.02,1.998-0.009,3.185,0.217c2.968,0.565,6.975,2.902,6.975,8.311
			c0,1.526-0.714,6.094-1.986,10.174c-0.653,2.094-1.595,4.547-2.96,6.596c-1.209,1.816-3.825,4.892-8.149,4.892h-19.031
			c-0.474,0-1.051,0.044-1.65,0.058c-0.834,0.021-1.998,0.01-3.185-0.217c-2.968-0.566-6.976-2.903-6.976-8.311
			C254.331,119.665,255.045,115.096,256.317,111.016z M418.022,123.852c-1.577,0.739-3.055,1.454-4.316,2.245
			c-1.141,0.713-1.649,1.208-1.874,1.518c-0.182,0.25-0.184,0.378-0.184,0.51c0,0.049,0.471,1.952,5.325,1.952
			c4.481,0,6.079-1.978,7.424-4.729c0.948-1.944,1.568-3.892,2.222-5.35l0.232-0.502c-1.02,0.583-2.035,1.118-3.024,1.613
			C421.85,122.098,419.875,122.983,418.022,123.852z M416,95.851l-0.812-0.004c-2.011,0-3.728,1.081-4.839,3.155
			c0.493-0.197,1.001-0.413,1.512-0.646c1.749-0.798,3.119-1.618,3.959-2.343L416,95.851z M443.414,149.774
			c-0.568-3.146-0.841-8.123-0.972-15.869c-2.114,15.683-14.565,26.487-28.984,26.487c-18.896,0-28.647-15.292-31.924-31.357
			c0.07,1.186,0.105,2.058,0.106,2.489c0.042,10.714-6.143,18.028-12.154,22.39c-6.36,4.614-14.456,6.479-21.925,6.479
			c-13.898,0-24.593-4.75-32.353-14.653c-7.14-9.113-10.78-21.484-10.78-35.288c0-14.346,3.154-28.527,10.529-39.7
			c7.303-11.062,18.167-20.577,32.87-22.502c4.848-0.634,14.397-0.634,20.767,3.229c10.6,6.427,11.209,15.343,9.921,21.62
			c-0.379,1.843-0.68,3.554-1.125,5.009c-0.537,1.754-1.541,4.178-3.838,5.984c-3.263,2.563-7.283,3.27-10.684,3.621
			c-2.687,0.277-9.26-0.928-11.235-6.416c-0.61-0.041-1.436-0.039-2.508,0.071c-4.824,0.49-8.17,4.461-10.006,9.503
			c-2.457,6.753-3.182,12.976-3.191,20.399c-0.007,5.036,2.312,10.59,4.365,12.641c2.283,2.28,6.959,1.782,9.373,0.682
			c0.271-0.124,0.53-0.258,0.743-0.641c0.226-0.405,0.418-1.128,0.41-2.475c-0.005-1.136-0.307-1.657-0.569-2.004
			c-0.395-0.521-0.923-0.938-2.073-1.776c-0.997-0.727-2.358-1.737-3.445-2.921c-1.073-1.169-2.692-3.385-2.497-6.482
			c0.17-2.701,1.539-4.673,2.963-5.957c1.292-1.165,2.797-1.929,3.91-2.441c1.824-0.838,4.173-1.592,6.32-2.807
			c4.65-2.628,7.532-3.996,8.096-4.304c8.974-4.914,12.93,4.194,13.718,6.771c0.962,3.149,1.358,7.435,1.964,10.362
			c0.399,1.935,0.744,4.027,1.038,6.125c0.073-30.347,16.258-49.193,34.763-49.193c14.045,0,26.856,8.899,26.856,26.778
			c0,9.51-3.539,15.882-8.178,20.375c4.28-0.002,6.325,3.207,6.987,4.468c0.815,1.558,1.241,3.292,1.487,4.582
			c0.071,0.371,0.134,0.746,0.188,1.116c-0.017-3.701-0.021-7.836-0.021-12.455c0-21.055,0.509-31.429,1.698-36.644
			c0.639-2.801,1.778-5.617,4.457-7.412c1.188-0.795,2.349-1.15,2.994-1.334c-4.142-2.46-7.232-6.998-7.232-13.294
			c0-9.406,7.068-15.745,15.09-15.745s15.089,6.339,15.089,15.745c0,5.929-2.741,10.3-6.6,12.821
			c0.806,0.413,1.555,0.934,2.224,1.587c2.159,2.113,2.459,4.307,2.584,5.592c0.287,2.949,0.059,5.564-0.24,8.763
			c-0.296,3.181-0.859,7.456-1.114,14.038c-0.603,15.587,0.525,28.729,1.673,37.952c0.565,4.538,1.141,8.094,1.576,10.581
			l0.082,0.471c0.482-16.365,6.01-30.557,11.623-41.045c2.474-4.623,4.992-8.566,7.142-11.695c-0.525,0.176-0.999,0.333-1.444,0.461
			c-0.964,0.279-2.172,0.552-3.589,0.552c-1.973,0-4.271-0.986-5.774-3.496c-0.558-0.931-0.959-1.966-1.244-2.798
			c-0.544-1.586-1.081-3.718-1.541-5.909c-0.798-3.793-1.516-8.433-1.516-9.934c0-4.678,3.711-6.977,5.17-7.713
			c1.596-0.807,3.447-1.297,4.934-1.383l32.203-3.891h0.354c5.153,0,8.535,0.956,10.417,8.612c0.76,3.088,0.343,7.458-0.056,10.543
			c-0.445,3.438-1.107,6.816-1.487,8.557c-2.125,9.723-8.087,18.888-13.042,26.439c-2.45,3.733-4.852,7.332-6.752,10.766
			c-0.761,1.374-1.397,2.648-1.905,3.833c3.017-0.483,4.876-1.097,6.049-1.571c0.945-0.384,1.617-0.744,2.146-1.003
			c0.546-0.269,1.022-0.476,1.45-0.628c0.62-0.219,1.531-0.471,2.635-0.473c3.641-0.008,5.562,2.7,6.123,3.574
			c0.774,1.209,1.286,2.584,1.641,3.725c0.67,2.154,1.234,5.049,1.664,8.021c0.815,5.645,1.171,11.576,1.171,12.717
			c0,5.512-4.939,7.101-6.263,7.412c-0.825,0.194-1.701,0.291-2.481,0.324c-0.54,0.022-1.011,0.016-1.31,0.016h-34.229
			c-3.479,0-9.476-1.707-11.461-7.478c-0.592,3.812-3.184,6.283-6.514,7.118c-1.39,0.349-2.728,0.369-3.594,0.36
			c-0.717-0.008-1.45-0.056-2.131-0.056h-4.15l-4.151,0.001c-0.801,0-1.508,0.041-2.135,0.026c-0.878-0.021-2.42-0.12-4.021-0.915
			C444.891,156.098,443.878,152.354,443.414,149.774z M159.451,94.806c-0.549-0.141-1.467-0.236-3.008-0.236
			c-0.396,0-0.716,0.017-0.971,0.042l-0.069,1.198C156.74,95.413,158.094,95.081,159.451,94.806z M161.893,123.503
			c0-0.769,0.039-1.521,0.086-2.245c-1.629,0.339-2.43,1.368-2.43,5.077c0,2.877,0.42,3.447,2.354,3.594l-0.01-0.832V123.503z
			 M161.626,48.057c2.477-3.904,6.629-6.284,11.55-6.284c8.025,0,14.008,6.33,14.008,15.277c0,7.344-4.031,12.925-9.914,14.689
			c4.639,3.271,8.777,8.211,10.928,15.579c1.371,4.693,1.816,15.01,1.974,24.482c1.877-18.634,10.977-41.858,34.229-41.858
			c11.6,0,23.226,9.961,23.704,19.763c0.122,2.495-0.338,6.251-1.868,9.601c-1.529,3.351-4.941,7.768-11.152,7.768
			c-2.888,0-5.339-1.031-7.147-2.996c-0.753-0.818-1.26-1.656-1.587-2.242c-0.243-0.436-0.469-0.9-0.719-1.366l-0.16-0.283
			c-0.233-0.061-0.565-0.107-1.113-0.107c-2.295,0-3.468,0.902-4.48,3.534c-1.209,3.14-1.536,7.607-1.536,12.342
			c0,10.133,2.622,12.213,7.314,12.213c3.503,0,4.641-1.27,5.363-2.284c0.281-0.395,0.511-0.792,0.714-1.162
			c0.295-0.54,0.546-1.043,0.776-1.475c0.24-0.449,0.719-1.337,1.403-2.134c0.668-0.779,2.387-2.466,5.187-2.466
			c5.184,0,7.607,4.499,8.424,6.438c1.091,2.589,1.592,5.688,1.592,8.608c0,17.447-12.689,26.698-27.63,26.698
			c-19.823,0-29.168-18.276-31.244-34.28c-0.026,5.746-0.101,10.215-0.101,11.61c0,5.682,0.996,9.151,0.792,14.479
			c-0.182,4.731-4.139,6.521-5.834,7.049c-1.882,0.585-4.087,0.73-5.921,0.792c-3.572,0.118-8.371-0.089-13.339,0.229
			c-26.917,1.726-33.454-14.935-34.889-23.923c-1.07,18.01-3.952,22.496-11.344,22.496h-14.056c-0.425,0-0.965,0.005-1.535-0.028
			c-0.672-0.04-1.679-0.142-2.754-0.481c-2.537-0.803-5.766-3.25-5.552-7.881c0.065-1.395,2.891-13.038,4.412-33.091
			c-0.308,1.46-0.614,2.78-0.927,3.97c-1.648,6.262-4.579,13.275-12.949,13.275c-9.405,0-12.572-8.128-14.361-14.962
			c-0.291-1.11-0.573-2.309-0.857-3.597c0.771,7.465,1.756,13.936,2.692,19.201c0.804,4.524,1.573,8.158,2.141,10.769
			c0.286,1.314,0.521,2.371,0.685,3.152c0.152,0.727,0.278,1.37,0.278,1.729c0,4.62-3.39,6.813-5.716,7.496
			c-1.037,0.305-2.003,0.393-2.652,0.426c-0.545,0.028-1.063,0.022-1.479,0.022H52.538c-10.324,0-11.635-9.204-11.635-54.698
			c0-32.487,0.051-51.177,0.905-61.747c0.771-9.559,2.312-15.965,8.983-15.965h0.586l15.447,3.096
			c7.55,1.48,11.286,6.05,15.256,16.44c2.02,5.285,3.502,9.599,4.649,13.047c1.236-2.8,2.792-6.308,4.782-10.695
			c2.353-5.185,4.882-9.103,8.746-10.878c2.008-0.922,3.872-1.03,5.22-1.004c0.877,0.017,1.803,0.133,2.833,0.133h0.433
			l13.408,1.975l0.765,0.35c3.467,1.589,5.543,3.598,6.755,12.102c1.053,7.394,1.871,22.362,1.871,53.145
			c0,6.869-0.029,12.91-0.117,18.22c1.577-8.472,5.26-14.659,10.155-19.069c-5.594-2.926-9.91-10.209-9.91-16.195
			c0-8.359,3.881-15.021,10.277-18.659c-4.281-2.537-7-7.465-7-13.536c0-8.939,5.896-15.4,13.997-15.4
			C154.769,39.508,159.456,42.852,161.626,48.057z M160.062,65.675c0.463,0.049,0.946,0.107,1.445,0.176
			c-0.373-0.608-0.704-1.25-0.993-1.926c-0.37,0.594-0.777,1.153-1.22,1.676L160.062,65.675z"/>
		<path fill="#FFFFFF" d="M264.43,127.18c-0.716,0.018-1.678,0.012-2.646-0.173c-2.247-0.429-4.91-2.056-4.91-5.816
			c0-1.177,0.642-5.477,1.872-9.42c0.624-2.001,1.481-4.189,2.65-5.945c1.085-1.629,3.038-3.757,6.032-3.757h19.031
			c0.491,0,1.09-0.044,1.711-0.059c0.716-0.017,1.678-0.012,2.646,0.172c2.247,0.429,4.909,2.056,4.909,5.816
			c0,1.177-0.642,5.475-1.871,9.419c-0.625,2.002-1.481,4.188-2.65,5.945c-1.085,1.63-3.038,3.757-6.032,3.757h-19.031
			C265.65,127.12,265.052,127.164,264.43,127.18z M415.005,69.389c12.893,0,24.314,8.002,24.314,24.239
			c0,14.757-9.173,21.15-17.28,25.211c-1.956,0.979-3.911,1.854-5.745,2.715c-1.676,0.785-3.244,1.551-4.587,2.39
			c-2.542,1.592-3.249,2.815-3.249,4.181c0,2.384,2.774,4.492,7.867,4.492c5.764,0,8.094-2.85,9.708-6.157
			c0.964-1.972,1.596-3.945,2.259-5.424c0.37-0.828,0.885-1.849,1.641-2.69c0.832-0.927,2.123-1.803,3.877-1.803
			c2.647,0,4.044,2.029,4.608,3.105c0.644,1.229,1.013,2.676,1.244,3.882c0.471,2.47,0.552,5.073,0.552,5.61
			c0,16.9-12.408,28.715-26.758,28.715c-21.584,0-30.671-22.224-30.671-41.606C382.786,86.452,398.499,69.389,415.005,69.389z
			 M412.27,100.665c1.848-0.843,3.464-1.78,4.565-2.731c1.168-1.007,1.235-1.565,1.235-1.638c0-1.853-0.243-2.396-0.552-2.627
			c-0.167-0.126-0.441-0.231-0.951-0.292c-0.537-0.064-1.203-0.068-2.027-0.068c-4.919,0-7.988,4.188-8.57,9.627
			C407.339,102.558,409.75,101.815,412.27,100.665z M454.694,156.256c-0.777,0-1.466,0.041-2.075,0.026
			c-0.75-0.018-1.847-0.104-2.95-0.65c-2.455-1.218-3.3-3.795-3.754-6.309c-0.937-5.192-1.045-15.906-1.045-37.609
			c0-21.152,0.523-31.204,1.635-36.08c0.586-2.575,1.521-4.612,3.395-5.866c0.852-0.57,1.703-0.839,2.275-1.002
			c0.413-0.118,0.859-0.214,1.337-0.387c0.606-0.219,1.272-0.458,1.978-0.675c0.722-0.222,1.483-0.417,2.258-0.541
			c1.379-0.22,2.742-0.258,4.056-0.184c2.757,0.154,4.975,0.817,6.465,2.274c1.526,1.492,1.73,2.962,1.833,4.023
			c0.262,2.691,0.057,5.09-0.24,8.282c-0.3,3.211-0.867,7.528-1.124,14.174c-0.609,15.756,0.53,29.04,1.691,38.363
			c0.57,4.592,1.153,8.188,1.593,10.704c0.223,1.268,0.407,2.264,0.537,2.978c0.178,0.967,0.262,1.627,0.262,1.894
			c0,3.574-2.009,5.674-4.717,6.354c-1.065,0.267-2.138,0.292-2.947,0.283c-0.727-0.008-1.469-0.056-2.158-0.056l-4.151,0.001
			L454.694,156.256z M459.334,39.825c6.622,0,12.547,5.208,12.547,13.206c0,8.204-6.138,12.778-12.547,12.778
			c-6.41,0-12.547-4.574-12.547-12.778C446.788,45.033,452.711,39.825,459.334,39.825z M504.42,129.739
			c5.648-0.5,8.811-1.464,10.683-2.224c1.017-0.411,1.741-0.796,2.312-1.075c0.445-0.218,0.831-0.39,1.18-0.514
			c0.457-0.162,1.07-0.326,1.791-0.328c2.239-0.004,3.497,1.658,3.976,2.405c0.594,0.926,1.024,2.048,1.354,3.108
			c0.638,2.049,1.167,4.803,1.575,7.631c0.792,5.483,1.146,11.246,1.146,12.354c0,3.532-3.1,4.657-4.304,4.94
			c-0.668,0.156-1.378,0.231-2.009,0.259c-0.494,0.021-0.926,0.014-1.199,0.014h-34.229c-3.64,0-9.58-2.072-9.58-9.164
			c0-16.781,5.599-31.398,11.357-42.158c4.271-7.982,8.68-13.896,11.01-17.036c-2.615,0.402-4.41,0.913-5.788,1.361
			c-0.97,0.315-1.757,0.598-2.473,0.805c-0.844,0.244-1.796,0.452-2.884,0.452c-1.109,0-2.562-0.544-3.593-2.261
			c-0.422-0.704-0.755-1.542-1.021-2.317c-0.516-1.505-1.021-3.529-1.458-5.608c-0.803-3.822-1.461-8.213-1.461-9.411
			c0-3.138,2.482-4.795,3.774-5.448c1.334-0.674,2.879-1.064,3.995-1.117l32.147-3.883h0.201c4.232,0,6.4,0.383,7.948,6.677
			c0.628,2.558,0.298,6.466-0.11,9.612c-0.433,3.35-1.078,6.644-1.449,8.342c-2.008,9.186-7.68,17.963-12.684,25.589
			c-2.486,3.789-4.922,7.443-6.851,10.927C506.099,124.708,504.938,127.378,504.42,129.739z M353.697,79.075
			c-0.661-0.238-2.12-0.509-4.829-0.234c-6.26,0.635-10.165,5.745-12.137,11.163c-2.591,7.117-3.335,13.654-3.346,21.262
			c-0.008,5.556,2.479,11.812,5.11,14.44c3.464,3.461,9.555,2.414,12.226,1.196c1.568-0.716,2.658-2.077,2.641-5.438
			c-0.009-1.704-0.502-2.755-1.085-3.523c-0.658-0.87-1.508-1.497-2.603-2.295c-1.009-0.736-2.175-1.611-3.068-2.586
			c-0.888-0.968-1.966-2.527-1.834-4.606c0.117-1.87,1.057-3.263,2.13-4.232c0.996-0.899,2.216-1.535,3.269-2.019
			c1.879-0.864,4.295-1.652,6.509-2.904c4.634-2.618,7.506-3.981,8.067-4.289c6.247-3.421,9.174,2.376,10.063,5.287
			c0.94,3.079,1.313,7.271,1.904,10.134c1.687,8.161,2.376,19.165,2.384,21.104c0.037,9.606-5.48,16.244-11.106,20.324
			c-5.812,4.216-13.337,5.995-20.432,5.995c-13.23,0-23.138-4.476-30.35-13.68c-6.71-8.564-10.239-20.342-10.239-33.723
			c0-14.013,3.085-27.662,10.109-38.302c7.057-10.692,17.354-19.585,31.076-21.382c4.688-0.613,13.51-0.52,19.117,2.881
			c9.419,5.71,9.892,13.377,8.75,18.939c-0.36,1.757-0.642,3.39-1.065,4.777c-0.478,1.557-1.281,3.395-2.979,4.73
			c-2.656,2.088-6.045,2.747-9.373,3.09C360.055,85.449,354.368,84.011,353.697,79.075z M224.402,72.482
			c10.532,0,20.766,9.168,21.165,17.346c0.104,2.152-0.305,5.495-1.642,8.424c-1.343,2.941-4.074,6.282-8.839,6.282
			c-2.237,0-3.988-0.775-5.276-2.175c-0.559-0.607-0.953-1.249-1.237-1.758c-0.237-0.425-0.457-0.877-0.7-1.33
			c-0.39-0.728-0.637-1.018-0.924-1.212c-0.27-0.182-0.943-0.52-2.589-0.52c-3.61,0-5.568,1.82-6.854,5.162
			c-1.393,3.62-1.705,8.507-1.705,13.253c0,10.559,2.95,14.753,9.857,14.753c4.418,0,6.292-1.746,7.435-3.353
			c0.342-0.481,0.625-0.964,0.872-1.415c0.299-0.547,0.554-1.059,0.788-1.496c0.238-0.444,0.605-1.111,1.091-1.678
			c0.483-0.563,1.559-1.58,3.256-1.58c3.472,0,5.297,3.026,6.082,4.886c0.931,2.209,1.393,4.96,1.393,7.622
			c0,15.787-11.277,24.16-25.088,24.16c-20.391,0-29.154-21.736-29.154-38.609C192.332,99.919,200.486,72.482,224.402,72.482z
			 M173.177,44.313c6.442,0,11.464,5.008,11.464,12.737c0,7.729-5.022,12.737-11.464,12.737s-11.465-5.009-11.465-12.737
			C161.711,49.321,166.734,44.313,173.177,44.313z M148.941,42.048c6.481,0,11.453,5.1,11.453,12.861
			c0,7.762-4.972,12.861-11.453,12.861s-11.453-5.1-11.453-12.861C137.488,47.147,142.46,42.048,148.941,42.048z M164.371,132.513
			c-0.093-0.915-0.186-2.036-0.186-3.403v-5.596c0-1.187,0.101-2.334,0.168-3.386c0.042-0.654,0.052-1.1,0.039-1.415
			c-0.332-0.106-0.529-0.149-0.677-0.149c-4.664,0-6.959,1.761-6.959,7.782c0,4.933,1.855,6.178,6.317,6.178L164.371,132.513z
			 M147.517,102.019c-0.301,0.035-0.612,0.052-0.933,0.052c-6.072,0-12.373-8.344-12.373-14.967
			c0-11.366,7.951-19.158,20.028-19.158c0.96,0,2.978-0.015,5.554,0.256c2.599,0.274,5.815,0.846,9.127,2.052
			c6.696,2.439,13.844,7.524,16.836,17.775c1.395,4.775,1.797,16.417,1.914,26.777c0.119,10.595-0.07,20.689-0.07,22.917
			c0,5.645,0.996,9.091,0.792,14.383c-0.115,3.017-2.594,4.268-4.049,4.72c-1.526,0.476-3.428,0.618-5.25,0.679
			c-3.593,0.119-8.42-0.086-13.417,0.234c-30.024,1.925-32.554-20.308-32.554-25.666
			C133.124,116.237,139.274,107.101,147.517,102.019z M162.812,96.831c-0.011-0.147-0.019-0.326-0.019-0.545
			c0-3.331-1.601-4.254-6.352-4.254c-2.458,0-3.059,0.548-3.119,0.608c-0.069,0.068-0.256,0.288-0.354,1.364
			c-0.055,0.612-0.072,1.223-0.115,1.795c-0.05,0.649-0.145,1.561-0.462,2.464c-0.223,0.634-0.528,1.194-0.907,1.676
			c2.875-1.271,5.906-2.153,8.953-2.738c0.865-0.169,1.63-0.255,2.297-0.357L162.812,96.831z M103.927,83.047
			c-0.584,2.233-1.02,4.379-1.237,5.575c-2.802,15.407-4.269,25.662-5.955,32.064c-1.665,6.324-4.155,11.382-10.49,11.382
			c-7.329,0-10.077-6.093-11.901-13.063c-1.867-7.135-3.414-17.94-6.741-32.628c-0.158-0.695-0.433-1.924-0.798-3.407
			c0.129,2.555,0.258,4.681,0.258,5.548c0,35.784,7.217,60.463,7.217,62.384c0,3.074-2.183,4.559-3.891,5.059
			c-0.767,0.226-1.512,0.299-2.067,0.326c-0.497,0.026-0.969,0.02-1.347,0.02H52.538c-7.062,0-9.093-4.593-9.093-52.158
			c0-32.379,0.046-51.008,0.896-61.543c0.833-10.314,2.464-13.629,6.45-13.629h0.333l15.204,3.047
			c6.239,1.224,9.509,4.735,13.375,14.854c3.348,8.761,5.212,14.833,6.514,18.714l0.163,0.48c1.433-3.152,3.645-8.322,7.446-16.699
			c2.332-5.14,4.542-8.263,7.492-9.618c1.518-0.699,2.951-0.795,4.11-0.773c0.892,0.017,1.833,0.134,2.88,0.134h0.246l12.864,1.895
			l0.435,0.199c2.418,1.108,4.161,2.169,5.298,10.151c1.046,7.344,1.846,22.211,1.846,52.788c0,47.465-2.017,52.158-9.392,52.158
			h-14.056c-0.383,0-0.872,0.006-1.386-0.024c-0.572-0.033-1.344-0.117-2.137-0.367c-1.83-0.579-3.923-2.226-3.779-5.342
			c0.089-1.913,5.359-23.083,5.359-58.774C103.609,90.511,103.918,86.772,103.927,83.047z"/>
		<path fill="#65B32E" d="M266.141,125.131c-0.505,0-1.121,0.045-1.76,0.06c-0.677,0.017-1.469,0.006-2.225-0.139
			c-1.643-0.312-3.291-1.359-3.291-3.861c0-0.904,0.585-4.992,1.781-8.828c0.602-1.931,1.391-3.911,2.407-5.435
			c0.982-1.475,2.415-2.87,4.374-2.87h19.031c0.505,0,1.12-0.044,1.759-0.06c0.677-0.017,1.469-0.006,2.225,0.138
			c1.643,0.314,3.291,1.36,3.291,3.863c0,0.904-0.584,4.991-1.781,8.828c-0.602,1.931-1.391,3.911-2.407,5.435
			c-0.982,1.476-2.414,2.87-4.374,2.87H266.141z M283.316,122.062l1.303-0.01c0.548,0,1.27-0.397,2.107-1.656
			c0.806-1.208,1.502-2.903,2.074-4.737c1.151-3.69,1.658-7.489,1.658-8.02c0-0.796-0.28-1.04-1.08-1.192
			c-0.465-0.089-1.024-0.105-1.649-0.09c-0.663,0.016-1.301,0.061-1.825,0.061h-19.032c-0.547,0-1.269,0.397-2.107,1.656
			c-0.362,0.544-0.703,1.187-1.02,1.896c0.126-0.227,0.256-0.44,0.387-0.637c0.792-1.189,1.303-1.297,1.438-1.297h19.031
			c0.529,0,1.175-0.045,1.844-0.062c0.61-0.014,1.099,0.004,1.479,0.077c0.137,0.026,0.241,0.049,0.321,0.076
			c0.104,0.145,0.104,0.225,0.104,0.326c0,0.42-0.484,4.133-1.622,7.781c-0.562,1.805-1.233,3.414-1.976,4.53
			C284.074,121.785,283.6,122.01,283.316,122.062z M433.032,125.017c0.386,2.015,0.457,4.139,0.457,4.577
			c0,13.708-9.648,22.771-20.466,23.187l0.529,0.005c11.596,0,22.044-9.552,22.044-24.005c0-0.453-0.072-2.648-0.469-4.729
			c-0.201-1.053-0.467-1.964-0.79-2.579c-0.16-0.306-0.298-0.469-0.388-0.544c-0.215,0.015-0.298,0.072-0.414,0.2
			c-0.247,0.276-0.521,0.744-0.846,1.468l-0.212,0.416C432.398,123.158,432.885,124.242,433.032,125.017z M429.576,129.723
			c-2.22,3.776-5.95,7.241-13.155,7.241c-5.177,0-12.581-2.27-12.581-9.199c0-3.811,2.428-6.271,5.462-8.17
			c1.488-0.933,3.226-1.792,5.086-2.664c1.799-0.842,3.717-1.7,5.635-2.66c7.556-3.784,14.68-8.951,14.68-21.002
			c0-13.213-8.866-19.531-19.602-19.531c-8.085,0-16.973,5.479-22.396,16.754c5.356-10.257,13.687-15.136,21.094-15.136
			c10.363,0,18.795,6.028,18.795,18.727c0,11.59-6.775,16.546-14.235,20.282c-1.911,0.958-3.823,1.812-5.614,2.651
			c-1.894,0.888-3.658,1.764-5.173,2.711c-3.114,1.949-5.839,4.621-5.839,8.852c0,7.719,8.215,10.003,13.387,10.003
			C423.436,138.581,427.362,134.087,429.576,129.723z M401.252,104.47c0-6.992,3.661-15.798,12.709-16.215l-0.629-0.007
			c-10.244,0-14.189,9.74-14.189,17.035c0,3.397,3.231,3.896,4.622,3.896c1.125,0,5.609-1.23,9.59-3.045
			c3.05-1.391,7.309-3.771,8.623-7.226c-1.565,2.524-4.889,4.418-7.655,5.68c-3.971,1.812-8.316,2.973-9.254,2.973
			C403.667,107.561,401.252,107.075,401.252,104.47z M384.78,116.248c0-29.258,15.309-44.87,30.229-44.87
			c11.981,0,22.322,7.292,22.322,22.25c0,13.613-8.307,19.488-16.182,23.432c-1.939,0.973-3.88,1.84-5.697,2.692
			c-1.756,0.822-3.396,1.628-4.799,2.507c-2.753,1.723-4.184,3.469-4.184,5.865c0,4.293,4.709,6.48,9.859,6.48
			c6.775,0,9.676-3.543,11.498-7.273c0.973-1.994,1.615-3.988,2.285-5.484c0.352-0.783,0.765-1.57,1.306-2.174
			c0.573-0.638,1.362-1.143,2.395-1.143c1.481,0,2.366,1.13,2.845,2.041c0.508,0.969,0.833,2.189,1.051,3.33
			c0.44,2.306,0.519,4.737,0.519,5.238c0,15.867-11.582,26.725-24.767,26.725C393.719,155.864,384.78,135.465,384.78,116.248z
			 M403.881,104.83c0.157,0.242,0.523,0.372,1.095,0.372c0.302,0,4.181-0.928,8.124-2.728c4.153-1.895,6.965-4.14,6.965-6.179
			c0-4.685-1.854-4.978-5.521-4.978C407.357,91.318,403.881,98.146,403.881,104.83z M451.571,74.978
			c0.088-0.105,0.155-0.153,0.191-0.177c0.117-0.078,0.295-0.159,0.719-0.279c0.524-0.15,1.089-0.284,1.696-0.503
			c1.256-0.453,2.269-0.803,3.23-0.957c0.978-0.156,1.945-0.176,2.876-0.124c2.197,0.123,2.817,0.614,2.914,0.71
			c0.139,0.172,0.168,0.28,0.201,0.618c0.204,2.095,0.059,3.993-0.242,7.238c-0.307,3.278-0.882,7.687-1.145,14.472
			c-0.622,16.122,0.541,29.716,1.729,39.255c0.586,4.708,1.183,8.394,1.634,10.974c0.225,1.284,0.413,2.291,0.544,3.014l0.141,0.794
			c0.008,0.627-0.083,0.861-0.145,0.949c-0.04,0.061-0.099,0.105-0.367,0.173c-0.191,0.048-0.423,0.08-0.704,0.1l0.457,0.009
			c0.709,0.008,1.287-0.027,1.747-0.143c0.679-0.169,1.151-0.438,1.151-1.787c0-0.034-0.019-0.103-0.035-0.211l-0.149-0.839
			c-0.131-0.722-0.319-1.729-0.542-3.011c-0.45-2.571-1.046-6.243-1.629-10.934c-1.184-9.509-2.344-23.056-1.723-39.125
			c0.261-6.765,0.835-11.16,1.14-14.429c0.302-3.237,0.455-5.208,0.242-7.39c-0.062-0.64-0.087-0.771-0.438-1.115
			c-0.3-0.293-1.153-0.81-3.433-0.938c-0.987-0.055-2.011-0.033-3.048,0.132c-1.05,0.167-2.133,0.546-3.377,0.995
			c-0.589,0.212-1.137,0.341-1.645,0.485c-0.444,0.126-0.721,0.235-0.944,0.386C452.332,73.51,451.951,73.892,451.571,74.978z
			 M458.847,154.266l-4.151,0.001c-0.761,0-1.432,0.04-2.027,0.027c-0.652-0.016-1.401-0.092-2.112-0.444
			c-1.524-0.756-2.237-2.421-2.68-4.878c-0.896-4.969-1.013-15.436-1.013-37.258c0-21.228,0.533-31.028,1.584-35.638
			c0.547-2.396,1.319-3.823,2.562-4.655c0.586-0.393,1.196-0.594,1.713-0.742c0.453-0.128,0.942-0.239,1.467-0.428
			c1.208-0.436,2.529-0.908,3.872-1.122c1.235-0.197,2.454-0.229,3.631-0.162c2.555,0.144,4.197,0.745,5.184,1.709
			c1.029,1.007,1.157,1.911,1.243,2.794c0.241,2.477,0.058,4.695-0.241,7.906c-0.301,3.236-0.872,7.586-1.131,14.282
			c-0.614,15.889,0.534,29.284,1.705,38.686c0.577,4.634,1.164,8.263,1.608,10.802c0.223,1.273,0.408,2.273,0.539,2.99l0.157,0.89
			c0.053,0.325,0.072,0.543,0.072,0.648c0,2.633-1.36,3.959-3.211,4.425c-0.81,0.202-1.674,0.231-2.44,0.223
			c-0.733-0.008-1.483-0.056-2.181-0.056L458.847,154.266z M452.25,49.076c1.309-2.14,3.562-3.285,5.875-3.285
			c3.584,0,7.027,2.75,7.027,7.694c0,4.512-2.906,6.946-6.329,7.235c0.2,0.014,0.402,0.021,0.604,0.021
			c4.112,0,7.834-2.762,7.834-8.069c0-5.39-3.806-8.499-7.834-8.499C456.407,44.173,453.508,45.924,452.25,49.076z M448.78,53.031
			c0-6.896,5.03-11.217,10.556-11.217s10.556,4.321,10.556,11.217c0,6.979-5.114,10.789-10.556,10.789
			C453.896,63.82,448.78,60.01,448.78,53.031z M520.339,129.979c-0.276,0.097-0.497,0.201-0.755,0.327
			c-0.644,0.316-1.465,0.747-2.615,1.212c-2.364,0.958-5.991,2.016-12.038,2.55c-3.353,0.298-5.854-0.468-5.24-4.487
			c0.52-3.4,2.063-6.944,4.058-10.546c1.982-3.581,4.479-7.339,7.033-11.231c5.096-7.766,10.231-15.821,12.021-24.012
			c0.746-3.411,2.406-12.491,1.587-15.827c-0.275-1.118-0.5-1.85-0.711-2.339c-0.21-0.485-0.354-0.605-0.396-0.635
			c-0.035-0.025-0.134-0.086-0.519-0.112c-0.449-0.031-0.991-0.007-1.662-0.005l-32.179,3.877c-0.288,0-1.247,0.174-2.121,0.615
			c-0.927,0.469-1.188,0.928-1.188,1.247l0.026,0.406l0.223-0.121c0.778-0.394,1.614-0.529,1.757-0.529l32.276-3.883
			c0.607-0.003,1.09-0.019,1.505,0.009c0.147,0.075,0.185,0.145,0.235,0.263c0.184,0.426,0.396,1.104,0.669,2.214
			c0.764,3.111-0.828,11.972-1.592,15.462c-1.753,8.022-6.797,15.953-11.908,23.744c-2.565,3.91-5.074,7.686-7.064,11.283
			c-2.01,3.631-3.607,7.274-4.148,10.813c-0.747,4.886,2.655,5.716,6.107,5.411c6.115-0.542,9.82-1.615,12.27-2.606
			c1.172-0.476,2.009-0.913,2.666-1.235c0.237,0.304,0.414,0.762,0.601,1.358c0.566,1.821,1.021,4.271,1.384,6.782
			c0.666,4.617,1.015,9.443,1.078,11.131c-0.365,0.087-0.712,0.115-1.021,0.128l0.342-0.001c0.228,0,0.587,0.009,0.996-0.009
			c0.356-0.016,0.756-0.05,1.132-0.138c0.359-0.085,0.589-0.289,0.67-0.358c0-1.048-0.348-6.495-1.098-11.682
			c-0.369-2.558-0.834-5.052-1.41-6.905c-0.285-0.913-0.566-1.566-0.822-1.966C520.428,130.092,520.379,130.025,520.339,129.979z
			 M503.293,85.541c-0.149-0.017-0.376,0.005-0.744,0.028c-0.481,0.03-0.939,0.105-1.242,0.138c-3.959,0.439-6.43,1.13-8.227,1.714
			c-0.945,0.307-1.712,0.584-2.41,0.786c-0.748,0.216-1.501,0.374-2.33,0.374c-0.581,0-1.011-0.285-1.267-0.516
			c-0.259-0.233-0.461-0.518-0.617-0.778c-0.315-0.526-0.595-1.209-0.845-1.939c-0.494-1.442-0.976-3.381-1.394-5.372
			c-0.809-3.846-1.42-8.042-1.42-9.002c0-1.944,1.541-3.096,2.683-3.673c1.148-0.581,2.465-0.884,3.256-0.907l32.107-3.878
			c0.866,0,1.493-0.023,2.011,0.012c0.602,0.041,1.28,0.163,1.905,0.604c0.618,0.436,1.017,1.065,1.325,1.778
			c0.306,0.709,0.573,1.624,0.854,2.769c1.007,4.093-0.883,13.909-1.57,17.055c-1.916,8.766-7.361,17.238-12.404,24.923
			c-2.515,3.833-4.976,7.531-6.927,11.056c-1.939,3.504-3.303,6.716-3.749,9.642c-0.089,0.58-0.072,0.919-0.031,1.103
			c0.207,0.247,0.747,0.408,2.34,0.266c5.816-0.514,9.175-1.518,11.255-2.36c1.073-0.435,1.839-0.839,2.44-1.133
			c0.365-0.18,0.682-0.323,0.968-0.425c0.331-0.117,0.711-0.213,1.13-0.214c1.152-0.003,1.89,0.855,2.295,1.488
			c0.451,0.703,0.818,1.629,1.129,2.626c0.612,1.966,1.113,4.61,1.506,7.324c0.773,5.358,1.126,10.987,1.126,12.07
			c0,2.021-1.724,2.759-2.769,3.004c-0.545,0.128-1.123,0.186-1.639,0.207c-0.458,0.021-0.859,0.012-1.113,0.012h-34.229
			c-3.132,0-7.588-1.69-7.588-7.174c0-16.344,5.455-30.632,11.121-41.22c5.617-10.497,11.479-17.392,12.467-19.057
			C503.115,86.165,503.251,85.748,503.293,85.541z M349.593,108.61c0.318-0.25,0.837-0.561,1.676-0.946
			c2.001-0.919,4.562-1.781,6.919-3.114c4.596-2.597,7.445-3.947,8.003-4.252c0.521-0.285,0.779-0.358,1.021-0.199
			c0.301,0.197,0.66,0.789,1.11,2.261c0.894,2.926,1.217,6.918,1.779,9.64c1.599,7.738,2.263,18.173,2.27,20.011
			c0.027,7.214-4.051,12.375-8.831,15.843c-4.401,3.193-10.317,4.787-16.296,4.932l0.411,0.001c6.397,0,12.867-1.617,17.661-5.096
			c4.904-3.558,9.192-8.934,9.162-16.496c-0.006-1.853-0.674-12.371-2.285-20.171c-0.566-2.741-0.896-6.762-1.797-9.711
			c-0.915-2.991-1.803-3.347-3.29-2.532c-0.558,0.305-3.411,1.657-8.013,4.257c-2.336,1.32-4.875,2.171-6.858,3.083
			c-2.034,0.934-2.624,1.603-2.666,2.27C349.566,108.45,349.571,108.522,349.593,108.61z M350.079,73.683
			c-0.942-0.021-1.939,0.022-2.978,0.127c-9.396,0.954-14.509,8.563-16.766,14.763c-2.877,7.906-3.666,15.126-3.677,23.139
			c-0.01,6.678,2.838,14.463,6.727,18.347c6.057,6.051,15.254,3.755,18.419,2.312c2.38-1.085,3.985-2.811,4.906-5.021
			c-0.887,1.504-2.188,2.68-3.938,3.477c-3.096,1.411-11.838,3.521-17.516-2.15c-3.705-3.7-6.499-11.263-6.49-17.776
			c0.011-7.953,0.793-15.075,3.628-22.865c2.217-6.087,7.153-13.33,16.091-14.238C349.038,73.741,349.567,73.704,350.079,73.683z
			 M321.11,74.382c-1.17,1.771-1.547,2.644-0.632,1.256c6.526-9.886,15.591-17.433,27.188-18.95
			c4.34-0.568,11.579-0.272,15.537,2.127c6.873,4.167,7.024,9.135,6.207,13.12c-0.323,1.57-0.559,3.033-0.938,4.273
			c-0.345,1.129-0.714,1.695-1.114,2.009c-1.282,1.009-3.177,1.562-6.12,1.895c0.323,0.051,0.652,0.065,0.98,0.031
			c3.197-0.33,5.408-0.902,6.941-2.107c0.59-0.464,1.022-1.215,1.387-2.406c0.386-1.262,0.628-2.749,0.956-4.347
			c0.866-4.217,0.665-9.578-6.578-13.969c-4.198-2.546-11.669-2.812-16.059-2.237C336.958,56.635,327.713,64.378,321.11,74.382z
			 M318.781,142.948c-6.373-8.134-9.816-19.446-9.816-32.497c0-13.751,3.032-26.984,9.78-37.207
			c6.866-10.401,16.719-18.809,29.674-20.504c4.561-0.598,12.812-0.43,17.825,2.609c8.499,5.153,8.856,11.844,7.831,16.84
			c-0.347,1.689-0.61,3.261-1.019,4.594c-0.43,1.403-1.077,2.782-2.306,3.749c-2.184,1.715-5.074,2.337-8.347,2.675
			c-2.355,0.243-6.778-1.265-6.778-5.091c-0.012-0.034-0.053-0.144-0.113-0.218c-0.121-0.151-0.377-0.376-0.874-0.59
			c-1.01-0.436-2.861-0.762-5.97-0.446c-7.39,0.75-11.732,6.759-13.808,12.461c-2.694,7.401-3.454,14.185-3.464,21.94
			c-0.01,5.959,2.606,12.768,5.692,15.85c4.397,4.393,11.607,2.899,14.461,1.599c2.475-1.128,3.825-3.353,3.806-7.258
			c-0.011-2.15-0.656-3.615-1.488-4.715c-0.427-0.562-0.917-1.047-1.436-1.488c-0.542-0.462-1.088-0.854-1.58-1.212
			c-1.021-0.745-2.034-1.515-2.775-2.324c-0.741-0.806-1.396-1.852-1.316-3.137c0.155-2.453,2.372-3.709,4.244-4.569
			c1.924-0.884,4.393-1.699,6.658-2.979c4.619-2.611,7.483-3.969,8.044-4.276c4.214-2.308,6.29,1.142,7.2,4.123
			c0.924,3.024,1.279,7.144,1.859,9.955c1.654,8.008,2.336,18.807,2.342,20.71c0.035,8.742-4.963,14.847-10.285,18.706
			c-5.382,3.905-12.459,5.615-19.26,5.615C334.856,155.864,325.563,151.605,318.781,142.948z M67.525,151.225
			c0.383-0.02,0.718-0.064,0.984-0.142c0.46-0.136,0.505-0.253,0.505-0.543c0-1.919-7.216-26.598-7.216-62.383
			c0-1.435-0.361-6.356-0.476-10.917c-0.059-2.345-0.052-4.598,0.094-6.265c0.072-0.839,0.188-1.631,0.385-2.245
			c0.096-0.301,0.243-0.659,0.485-0.967c0.098-0.125,0.228-0.259,0.388-0.375c-0.158-0.025-0.323-0.04-0.494-0.04
			c-1.012,0-1.688,0.577-2.034,1.016c-0.327,0.417-0.51,0.879-0.619,1.219c-0.225,0.702-0.346,1.565-0.42,2.42
			c-0.148,1.691-0.157,3.976-0.097,6.354c0.114,4.553,0.476,9.465,0.476,10.897c0,34.123,6.558,58.156,7.168,61.984
			C66.917,151.239,67.215,151.241,67.525,151.225z M50.579,35.528l12.608,2.638c3.413,0.668,5.667,1.898,9.302,11.415
			c3.309,8.661,5.15,14.664,6.437,18.5c0.637,1.899,1.198,3.458,1.781,4.546c0.509,0.95,1.514,2.464,3.4,2.464
			c1.307,0,2.225-0.69,2.901-1.578c0.423-0.555,0.847-1.308,1.315-2.254c-0.154,0.254-0.303,0.476-0.45,0.669
			c-0.582,0.764-1.288,1.259-2.26,1.259c-1.387,0-2.189-1.104-2.69-2.04c-0.546-1.019-1.086-2.512-1.728-4.421
			c-1.289-3.843-3.133-9.855-6.448-18.531c-3.671-9.607-6.069-11.167-9.895-11.916l-12.58-2.63
			c-2.252-0.618-2.809,0.514-3.046,1.307c-0.044,0.148-0.088,0.315-0.131,0.508C49.373,35.354,49.825,35.321,50.579,35.528z
			 M103.144,72.434c-0.111-0.011-0.225-0.016-0.341-0.016c-1.121,0-1.95,0.594-2.454,1.088c-0.521,0.511-0.941,1.15-1.282,1.771
			c-0.687,1.252-1.284,2.867-1.784,4.471c-1.003,3.214-1.761,6.868-2.081,8.627c-2.765,15.205-4.199,25.328-5.862,31.649
			c-1.218,4.627-2.36,6.371-3.646,6.977c2.602,0,4.257-1.509,5.932-7.871c1.667-6.333,3.105-16.474,5.876-31.709
			c0.316-1.74,1.065-5.353,2.057-8.531c0.495-1.587,1.073-3.142,1.722-4.323c0.322-0.588,0.698-1.15,1.139-1.583
			C102.618,72.788,102.86,72.59,103.144,72.434z M98.477,49.055c1.383-2.399,2.382-3.231,3.089-3.556
			c0.455-0.209,0.949-0.284,1.701-0.269c0.894,0.016,1.834,0.127,2.877,0.134l11.764,1.741c0.182,0.056,0.301,0.174,0.41,0.347
			c0.062,0.097,0.112,0.205,0.16,0.321c0.063,0.154,0.111,0.284,0.152,0.37c0.178,0.373,0.485,1.113,1,4.731
			c1.031,7.236,1.791,21.885,1.791,52.011c0,25.158-0.75,37.155-1.833,42.844c-0.398,2.092-0.801,3.071-1.05,3.509h0.517
			l0.561,0.003c0.123-0.001,0.246-0.005,0.368-0.023c0.154-0.024,0.262-0.066,0.389-0.183c0.353-0.323,0.955-1.307,1.515-4.255
			c1.099-5.774,1.847-17.849,1.847-42.993c0-30.192-0.766-44.874-1.798-52.125c-0.516-3.623-0.835-4.471-1.072-4.964
			c-0.145-0.303-0.365-1.265-1.33-1.485l-11.877-1.75c-1.039-0.006-1.977-0.117-2.867-0.134c-0.811-0.015-1.442,0.062-2.052,0.343
			C101.653,44.167,100.302,45.46,98.477,49.055z M64.76,70.874c-0.03,0.216-0.058,0.451-0.08,0.699
			c-0.138,1.584-0.14,3.728-0.084,5.959c0.115,4.59,0.477,9.541,0.477,10.986c0,35.785,7.216,60.463,7.216,62.383
			c0,1.893-1.272,2.803-2.459,3.15c-0.557,0.164-1.128,0.225-1.61,0.25c-0.458,0.023-0.895,0.016-1.244,0.016H52.538
			c-4.499,0-7.101-0.932-7.101-50.169c0-66.158,0.593-73.184,5.354-73.184l15.144,3.008c5.223,1.021,8.123,3.706,11.909,13.613
			c3.333,8.725,5.188,14.771,6.485,18.637c0.653,1.945,1.126,3.219,1.546,4.003c0.138,0.257,0.249,0.42,0.329,0.519
			c0.375-0.521,0.813-1.321,1.526-2.846c1.413-3.022,3.677-8.376,7.91-17.705c2.317-5.106,4.275-7.606,6.51-8.632
			c1.135-0.521,2.229-0.61,3.241-0.591c0.904,0.017,1.857,0.135,2.918,0.135l12.539,1.832c0.287,0.131,0.402,0.172,0.519,0.219
			c0.194,0.079,0.393,0.167,0.594,0.282c0.483,0.279,0.934,0.688,1.338,1.329c0.751,1.189,1.361,3.217,1.882,6.873
			c1.04,7.306,1.825,22.095,1.825,52.508c0,49.112-2.584,50.169-7.4,50.169h-14.056c-0.351,0-0.798,0.006-1.269-0.021
			c-0.494-0.029-1.082-0.099-1.652-0.279c-1.245-0.393-2.481-1.395-2.391-3.354c0.088-1.915,5.362-23.118,5.362-58.866
			c0-1.437,0.381-5.914,0.309-10.033c-0.036-2.042-0.184-3.888-0.511-5.189c-0.166-0.659-0.35-1.064-0.506-1.278
			c-0.172,0.169-0.413,0.459-0.673,0.935c-0.518,0.943-1.033,2.295-1.51,3.826c-0.954,3.058-1.673,6.535-1.978,8.208
			c-2.788,15.334-4.244,25.541-5.921,31.914c-1.669,6.345-3.809,9.899-8.564,9.899c-5.713,0-8.128-4.521-9.975-11.579
			c-1.863-7.12-3.404-17.905-6.725-32.563c-0.353-1.554-1.283-5.722-2.48-9.5c-0.599-1.889-1.244-3.611-1.887-4.84
			C65.031,71.318,64.891,71.077,64.76,70.874z M201.919,92.583c4.328-8.327,11.111-14.135,20.627-14.135
			c8.181,0,15.423,7.418,15.652,12.103c0.069,1.407-0.231,3.853-1.15,5.868c-0.789,1.727-1.82,2.752-3.164,2.999
			c0.187,0.031,0.401,0.049,0.648,0.049c2.117,0,3.574-1.386,4.551-3.527c0.981-2.148,1.296-4.726,1.223-6.242
			c-0.253-5.192-7.93-12.867-16.457-12.867C213.463,76.83,206.302,83.424,201.919,92.583z M238.784,125.583
			c-0.106,0.147-0.242,0.377-0.426,0.721c-0.241,0.449-0.502,0.975-0.81,1.537c-0.33,0.601-0.709,1.241-1.166,1.883
			c-1.918,2.694-5.154,5.332-11.276,5.332c-11.128,0-14.571-8.286-14.571-19.461c0-4.771,0.285-10.436,2.019-14.941
			c1.702-4.424,4.887-7.882,10.505-8.162l-0.555-0.01c-6.511,0-10.146,3.865-12.005,8.696c-1.792,4.657-2.072,10.455-2.072,15.231
			c0,11.267,3.519,20.264,15.375,20.264c6.416,0,9.883-2.789,11.933-5.67c0.476-0.668,0.873-1.336,1.216-1.963
			c0.278-0.508,0.519-0.985,0.74-1.405c0.163,0.229,0.351,0.559,0.549,1.029c0.584,1.386,0.96,3.377,0.96,5.483
			c0,11.889-7.818,18.307-18.687,18.635l0.421,0.003c11.691,0,20.375-6.723,20.375-19.45c0-2.188-0.389-4.291-1.023-5.796
			C239.727,126.214,239.159,125.723,238.784,125.583z M194.323,119.246c0-19.438,8.168-44.774,30.079-44.774
			c9.687,0,18.838,8.539,19.175,15.454c0.091,1.883-0.278,4.902-1.464,7.502c-1.19,2.605-3.383,5.118-7.028,5.118
			c-1.725,0-2.929-0.575-3.81-1.532c-0.406-0.441-0.712-0.929-0.962-1.379c-0.232-0.416-0.447-0.859-0.685-1.302
			c-0.759-1.414-1.658-2.78-5.269-2.78c-4.654,0-7.219,2.554-8.713,6.438c-1.537,3.994-1.838,9.21-1.838,13.967
			c0,10.829,3.165,16.742,11.849,16.742c5.138,0,7.588-2.123,9.058-4.188c0.391-0.55,0.714-1.099,0.996-1.613
			c0.303-0.554,0.56-1.07,0.797-1.513c0.238-0.445,0.517-0.938,0.847-1.322c0.33-0.385,0.902-0.885,1.744-0.885
			c2.145,0,3.499,1.895,4.246,3.668c0.806,1.912,1.237,4.389,1.237,6.851c0,14.493-10.18,22.17-23.097,22.17
			C202.928,155.865,194.323,135.936,194.323,119.246z M162.348,113.93l-0.459-0.009c-7.901,0-12.477,4.422-12.477,13.295
			c0,8.543,4.926,11.689,11.835,11.689c1.607,0,2.942-0.025,3.924-0.224c1.094-0.222,2.377-0.801,2.861-2.335
			c-0.404,0.336-1.053,0.599-1.717,0.732c-0.888,0.18-2.139,0.208-3.764,0.208c-6.557,0-11.029-2.874-11.029-10.886
			C151.521,118.27,155.444,114.229,162.348,113.93z M139.62,80.346c2.261-4.012,6.652-6.436,12.765-6.436
			c0.859,0,2.667-0.018,4.974,0.226c2.292,0.242,5.042,0.739,7.817,1.75c5.501,2.004,11.05,5.99,13.429,14.139
			c1.129,3.868,1.573,14.577,1.693,25.296c0.119,10.566-0.071,20.633-0.071,22.855c0,5.416,0.946,8.778,0.811,13.767l-0.188,0.072
			c-0.75,0.233,0.679,0.223,1.542-0.046c0.426-0.132,0.661-0.331,0.74-0.406c0.201-5.225-0.796-8.627-0.796-14.2
			c0-2.225,0.19-12.295,0.071-22.864c-0.12-10.666-0.557-21.513-1.725-25.512c-2.469-8.456-8.251-12.603-13.927-14.67
			c-2.853-1.039-5.671-1.547-8.008-1.793c-2.346-0.248-4.185-0.23-5.059-0.23C146.699,72.293,141.788,75.367,139.62,80.346z
			 M166.006,123.57c0-1.144,0.1-2.248,0.164-3.261c0.064-0.994,0.077-1.736-0.03-2.311c-0.129-0.698-0.357-1.368-2.595-1.368
			c-5.83,0-8.949,2.718-8.949,9.771c0,6.229,2.955,8.167,8.307,8.167c1.689,0,2.654-0.038,3.225-0.154
			c0.1-0.021,0.188-0.042,0.264-0.071c0.004-0.013-0.041,0.021-0.049-0.259c-0.009-0.308-0.048-0.667-0.093-1.091
			c-0.103-0.962-0.243-2.211-0.243-3.829V123.57z M160.817,99.154c0.835-0.163,1.575-0.246,2.22-0.344
			c0.621-0.095,0.955-0.184,1.168-0.294c0.143-0.075,0.247-0.163,0.346-0.406c0.125-0.304,0.233-0.848,0.233-1.824
			c0-5.193-3.46-6.243-8.343-6.243c-4.938,0-5.284,1.882-5.456,3.783c-0.056,0.621-0.073,1.242-0.117,1.824
			c-0.046,0.612-0.128,1.309-0.354,1.955c-0.548,1.56-1.824,2.479-3.93,2.479c-4.598,0-10.381-7.039-10.381-12.978
			c0-10.203,6.993-17.169,18.037-17.169c0.923,0,2.866-0.017,5.345,0.245c2.488,0.263,5.536,0.807,8.654,1.943
			c6.265,2.282,12.835,6.971,15.607,16.463c1.299,4.447,1.716,15.754,1.834,26.243c0.119,10.585-0.07,20.668-0.07,22.895
			c0,5.615,0.996,9.041,0.794,14.306c-0.065,1.701-1.428,2.518-2.651,2.897c-1.246,0.388-2.909,0.529-4.724,0.59
			c-3.61,0.119-8.458-0.085-13.479,0.236c-28.238,1.811-30.435-18.713-30.435-23.681C135.115,109.76,147.737,101.665,160.817,99.154
			z M142.324,50.625c1.128-1.798,2.929-2.611,4.762-2.611c3.011,0,5.935,2.193,5.935,7.348c0,4.769-2.501,7.003-5.259,7.312
			c0.208,0.019,0.417,0.028,0.627,0.028c3.514,0,6.741-2.612,6.741-8.153c0-5.54-3.227-8.152-6.741-8.152
			C145.845,46.396,143.451,47.765,142.324,50.625z M139.479,54.909c0-6.826,4.238-10.872,9.462-10.872s9.462,4.046,9.462,10.872
			s-4.238,10.872-9.462,10.872S139.479,61.735,139.479,54.909z M166.527,52.88c1.124-1.786,2.932-2.602,4.794-2.602
			c3.045,0,5.947,2.18,5.947,7.226c0,4.669-2.485,6.884-5.27,7.188c0.207,0.019,0.416,0.028,0.626,0.028
			c3.538,0,6.752-2.589,6.752-8.03c0-5.441-3.214-8.029-6.752-8.029C170.048,48.661,167.644,50.033,166.527,52.88z M163.703,57.051
			c0-6.764,4.261-10.748,9.474-10.748c5.213,0,9.474,3.983,9.474,10.748c0,6.765-4.261,10.749-9.474,10.749
			C167.963,67.799,163.703,63.816,163.703,57.051z"/>
		<g>
			<path fill-rule="evenodd" clip-rule="evenodd" fill="#FFFFFF" d="M41.965,190.006h7.852c1.279,0,3.53,0,5.422-0.715
				c3.735-1.456,5.039-4.472,5.039-8.56c0-2.734-0.742-5.773-3.479-7.639c-1.918-1.304-4.834-1.533-7.034-1.533h-7.801V190.006z
				 M47.208,175.06l2.021,0.025c1.56,0,5.755,0,5.755,5.596c0,4.292-2.174,5.749-5.576,5.774h-2.2V175.06z"/>
			<polygon fill-rule="evenodd" clip-rule="evenodd" fill="#FFFFFF" points="65.729,190.006 79.796,190.006 79.796,186.43 
				70.792,186.43 70.792,182.494 79.08,182.494 79.08,178.969 70.792,178.969 70.792,175.137 79.591,175.137 79.591,171.61 
				65.729,171.61 			"/>
			<path fill-rule="evenodd" clip-rule="evenodd" fill="#FFFFFF" d="M85.246,190.006h5.141v-7.229h2.148
				c2.302,0,2.378,0.82,2.609,3.05c0.179,1.642,0.307,3.052,0.613,4.18h5.551c-0.435-1.308-0.69-3.308-0.87-4.563
				c-0.409-2.845-0.613-4.43-4.194-4.532v-0.102c0.512-0.077,1.637-0.204,2.814-0.945c0.87-0.536,1.688-1.399,1.688-3.407
				c0-1.983-0.716-3.006-1.279-3.567c-1.1-1.125-2.353-1.329-5.678-1.329h-8.542V190.006z M90.387,174.958h1.918
				c1.483,0,3.478,0,3.478,2.26c0,0.586-0.23,1.729-1.355,2.084c-0.435,0.153-0.997,0.153-2.123,0.153h-1.918V174.958z"/>
			<polygon fill-rule="evenodd" clip-rule="evenodd" fill="#FFFFFF" points="117.344,190.006 122.485,190.006 122.485,182.546 
				128.675,182.546 128.675,190.006 133.867,190.006 133.867,171.56 128.675,171.56 128.675,178.764 122.511,178.764 
				122.511,171.56 117.344,171.56 			"/>
			<path fill-rule="evenodd" clip-rule="evenodd" fill="#FFFFFF" d="M138.345,190.006h5.116l1.254-3.704h7.392l1.278,3.704h5.781
				l-7.289-18.446h-6.241L138.345,190.006z M145.916,182.904l2.558-7.741h0.076l2.379,7.741H145.916z"/>
			<path fill-rule="evenodd" clip-rule="evenodd" fill="#FFFFFF" d="M162.442,171.56l-0.025,10.501c0,3.016,0.025,8.432,8.747,8.432
				c2.328,0,5.627-0.436,7.417-2.632c1.151-1.354,1.432-3.577,1.432-5.621v-10.68h-4.987v10.782c0,1.84-0.435,4.471-3.683,4.471
				c-1.253,0-2.456-0.485-3.146-1.507c-0.512-0.767-0.588-1.789-0.588-2.785V171.56H162.442z"/>
			<path fill-rule="evenodd" clip-rule="evenodd" fill="#FFFFFF" d="M185.541,184.131c0.025,0.791,0.051,2.604,1.406,4.087
				c1.688,1.892,4.783,2.197,6.701,2.197c4.629,0,8.159-1.839,8.159-5.953c0-3.908-2.916-4.676-5.371-5.314l-3.453-0.895
				c-0.742-0.204-1.868-0.536-1.868-1.89c0-1.1,0.946-1.942,2.43-1.942c2.456,0,2.43,1.993,2.43,2.556h5.192
				c-0.025-1.968-0.332-5.877-7.545-5.877c-5.524,0-7.775,2.785-7.775,5.774c0,3.857,3.299,4.727,4.579,5.059l4.527,1.176
				c1.228,0.331,1.585,0.92,1.585,1.788c0,2.096-2.301,2.096-2.736,2.096c-3.043,0-3.095-2.121-3.121-2.861H185.541z"/>
			<polygon fill-rule="evenodd" clip-rule="evenodd" fill="#FFFFFF" points="207.152,190.006 212.292,190.006 212.292,182.546 
				218.482,182.546 218.482,190.006 223.674,190.006 223.674,171.56 218.482,171.56 218.482,178.764 212.318,178.764 
				212.318,171.56 207.152,171.56 			"/>
			<path fill-rule="evenodd" clip-rule="evenodd" fill="#FFFFFF" d="M228.152,190.006h5.115l1.253-3.704h7.392l1.279,3.704h5.781
				l-7.29-18.446h-6.241L228.152,190.006z M235.723,182.904l2.558-7.741h0.077l2.379,7.741H235.723z"/>
			<polygon fill-rule="evenodd" clip-rule="evenodd" fill="#FFFFFF" points="253.528,190.006 267.007,190.006 267.007,186.378 
				258.72,186.378 258.72,171.56 253.528,171.56 			"/>
			<polygon fill-rule="evenodd" clip-rule="evenodd" fill="#FFFFFF" points="272.943,190.006 278.11,190.006 278.11,175.214 
				283.864,175.214 283.864,171.56 267.315,171.56 267.315,175.214 272.943,175.214 			"/>
			<path fill-rule="evenodd" clip-rule="evenodd" fill="#FFFFFF" d="M287.754,184.131c0.025,0.791,0.051,2.604,1.407,4.087
				c1.688,1.892,4.782,2.197,6.701,2.197c4.629,0,8.159-1.839,8.159-5.953c0-3.908-2.916-4.676-5.371-5.314l-3.453-0.895
				c-0.742-0.204-1.867-0.536-1.867-1.89c0-1.1,0.946-1.942,2.43-1.942c2.456,0,2.43,1.993,2.43,2.556h5.192
				c-0.026-1.968-0.333-5.877-7.545-5.877c-5.524,0-7.776,2.785-7.776,5.774c0,3.857,3.3,4.727,4.579,5.059l4.526,1.176
				c1.228,0.331,1.586,0.92,1.586,1.788c0,2.096-2.302,2.096-2.736,2.096c-3.044,0-3.095-2.121-3.121-2.861H287.754z"/>
			<rect x="310.823" y="179.547" fill-rule="evenodd" clip-rule="evenodd" fill="#FFFFFF" width="7.264" height="3.04"/>
			<path fill-rule="evenodd" clip-rule="evenodd" fill="#FFFFFF" d="M325.76,190.006h7.853c1.278,0,3.529,0,5.423-0.715
				c3.733-1.456,5.038-4.472,5.038-8.56c0-2.734-0.742-5.773-3.479-7.639c-1.918-1.304-4.834-1.533-7.034-1.533h-7.801V190.006z
				 M331.003,175.06l2.021,0.025c1.562,0,5.756,0,5.756,5.596c0,4.292-2.174,5.749-5.576,5.774h-2.2V175.06z"/>
			<rect x="349.293" y="171.56" fill-rule="evenodd" clip-rule="evenodd" fill="#FFFFFF" width="5.27" height="18.446"/>
			<path fill-rule="evenodd" clip-rule="evenodd" fill="#FFFFFF" d="M359.911,184.131c0.024,0.791,0.05,2.604,1.406,4.087
				c1.688,1.892,4.782,2.197,6.701,2.197c4.629,0,8.159-1.839,8.159-5.953c0-3.908-2.917-4.676-5.371-5.314l-3.454-0.895
				c-0.741-0.204-1.866-0.536-1.866-1.89c0-1.1,0.945-1.942,2.43-1.942c2.456,0,2.43,1.993,2.43,2.556h5.192
				c-0.026-1.968-0.332-5.877-7.545-5.877c-5.525,0-7.775,2.785-7.775,5.774c0,3.857,3.299,4.727,4.578,5.059l4.527,1.176
				c1.227,0.331,1.585,0.92,1.585,1.788c0,2.096-2.302,2.096-2.736,2.096c-3.044,0-3.095-2.121-3.121-2.861H359.911z"/>
			<path fill-rule="evenodd" clip-rule="evenodd" fill="#FFFFFF" d="M398.581,177.359c-0.025-0.69-0.051-2.351-1.535-3.935
				c-1.457-1.533-3.734-2.249-6.727-2.249c-2.686,0-5.115,0.562-7.008,2.709c-1.738,1.967-2.327,4.497-2.327,7.025
				c0,1.917,0.358,4.854,2.378,7.001c2.047,2.146,5.218,2.453,7.008,2.453c2.405,0,8.288-0.486,8.313-6.26h-5.32
				c-0.103,0.715-0.384,2.682-3.095,2.682c-3.965,0-3.99-4.649-3.99-5.773c0-3.373,0.946-6.208,4.041-6.208
				c1.458,0,2.763,0.689,2.992,2.555H398.581z"/>
			<path fill-rule="evenodd" clip-rule="evenodd" fill="#FFFFFF" d="M402.829,180.859c0,6.873,4.578,9.581,9.489,9.581
				c4.399,0,9.617-2.248,9.617-9.605c0-4.497-1.995-9.787-9.361-9.787c-1.356,0-4.886,0.205-7.213,2.556
				S402.829,179.634,402.829,180.859z M408.098,180.835c0-3.17,0.921-6.082,4.296-6.082c1.126,0,2.328,0.307,3.07,1.329
				c0.562,0.817,1.176,2.095,1.176,4.675c0,2.556-0.613,5.928-4.271,5.928C408.967,186.685,408.098,183.772,408.098,180.835z"/>
			<path fill-rule="evenodd" clip-rule="evenodd" fill="#FFFFFF" d="M427.514,171.56l-0.026,10.501c0,3.016,0.026,8.432,8.748,8.432
				c2.327,0,5.626-0.436,7.417-2.632c1.15-1.354,1.433-3.577,1.433-5.621v-10.68h-4.988v10.782c0,1.84-0.435,4.471-3.683,4.471
				c-1.254,0-2.455-0.485-3.146-1.507c-0.512-0.767-0.588-1.789-0.588-2.785V171.56H427.514z"/>
			<polygon fill-rule="evenodd" clip-rule="evenodd" fill="#FFFFFF" points="451.252,190.006 455.753,190.006 455.703,175.672 
				462.071,190.006 468.977,190.006 468.977,171.56 464.5,171.56 464.552,185.306 458.311,171.56 451.252,171.56 			"/>
			<polygon fill-rule="evenodd" clip-rule="evenodd" fill="#FFFFFF" points="479.288,190.006 484.455,190.006 484.455,175.214 
				490.208,175.214 490.208,171.56 473.661,171.56 473.661,175.214 479.288,175.214 			"/>
			<polygon fill-rule="evenodd" clip-rule="evenodd" fill="#FFFFFF" points="494.789,190.006 508.856,190.006 508.856,186.43 
				499.852,186.43 499.852,182.494 508.14,182.494 508.14,178.969 499.852,178.969 499.852,175.137 508.652,175.137 508.652,171.61 
				494.789,171.61 			"/>
			<path fill-rule="evenodd" clip-rule="evenodd" fill="#FFFFFF" d="M514.306,190.006h5.142v-7.229h2.148
				c2.301,0,2.377,0.82,2.607,3.05c0.18,1.642,0.308,3.052,0.615,4.18h5.549c-0.434-1.308-0.69-3.308-0.869-4.563
				c-0.409-2.845-0.613-4.43-4.195-4.532v-0.102c0.513-0.077,1.639-0.204,2.814-0.945c0.869-0.536,1.688-1.399,1.688-3.407
				c0-1.983-0.716-3.006-1.278-3.567c-1.101-1.125-2.353-1.329-5.679-1.329h-8.542V190.006z M519.448,174.958h1.917
				c1.483,0,3.479,0,3.479,2.26c0,0.586-0.23,1.729-1.355,2.084c-0.436,0.153-0.998,0.153-2.124,0.153h-1.917V174.958z"/>
		</g>
	</g>
</g>
</svg>
